<?xml version="1.0" encoding="UTF-8"?>
<svg width="16px" height="13px" viewBox="0 0 16 13" version="1.1" xmlns="http://www.w3.org/2000/svg" xmlns:xlink="http://www.w3.org/1999/xlink">
    <!-- Generator: Sketch 45.1 (43504) - http://www.bohemiancoding.com/sketch -->
    <title>123</title>
    <desc>Created with Sketch.</desc>
    <defs></defs>
    <g id="2.0业务端" stroke="none" stroke-width="1" fill="none" fill-rule="evenodd">
        <g id="图表工具-copy" transform="translate(0.000000, -362.000000)" fill="#666666">
            <path d="M3.19996161,371 C3.13467176,370.539851 3.11295312,370.135842 3.11295312,369.541133 L3.11295312,363.862855 C3.11295312,363.189528 3.13467176,362.673349 3.19996161,362.01125 C2.80813322,362.05614 2.64489743,362.06728 2.08974397,362.06728 L1.08843203,362.06728 C0.576872103,362.06728 0.337431341,362.05614 0,362 L0,363.425205 C0.402743513,363.380316 0.718389249,363.357838 1.12113276,363.357838 L1.64349621,363.357838 L1.64349621,369.541133 C1.64349621,370.124614 1.62177757,370.562351 1.5564654,371 L3.19996161,371 Z M7.99331365,370.933907 C8.56121258,370.933907 8.91616616,370.955967 9.33330692,371 L9.33330692,369.547658 C9.04040661,369.602678 8.59670348,369.635637 8.03771075,369.635637 L5.55296876,369.635637 C5.68602613,369.217543 5.79249881,368.997488 6.05876979,368.6454 C6.28059904,368.348353 6.72432449,367.886248 7.11476895,367.545234 C8.26840155,366.566006 8.35717343,366.47794 8.60558736,366.191945 C9.04040661,365.685807 9.23562884,365.157697 9.23562884,364.431482 C9.23562884,362.924209 8.27730776,362 6.72432449,362 C5.83687359,362 5.13585032,362.34108 4.69212487,362.979229 C4.36384527,363.452342 4.20409161,363.903372 4.07985116,364.739625 L5.34886265,364.926634 C5.41093823,364.420496 5.47310309,364.178468 5.62395055,363.914446 C5.84575747,363.4853 6.23622426,363.265311 6.75090918,363.265311 C7.50521342,363.265311 7.97552356,363.727328 7.97552356,364.475515 C7.97552356,365.036672 7.72704267,365.399747 6.91064052,366.092893 C6.0232789,366.830006 5.75700792,367.083129 5.44642912,367.424209 C4.8696463,368.073344 4.47029563,368.777499 4.23069862,369.580617 C4.11534205,369.976716 4.05326647,370.361851 3.99998549,370.988926 C4.31056429,370.944981 4.45250554,370.933907 5.14473421,370.933907 L7.99331365,370.933907 Z M9.59996518,368.760756 C9.78699549,369.388182 9.92206178,369.669452 10.1818149,369.972344 C10.7740218,370.675465 11.605223,371 12.8207749,371 C13.9324881,371 14.8051846,370.697086 15.3765656,370.123757 C15.7610057,369.723527 16,369.128554 16,368.54448 C16,367.906243 15.8440856,367.451939 15.5012525,367.051621 C15.1376606,366.62977 14.7532205,366.445926 14.015568,366.326878 C14.5661902,366.175465 14.7948275,366.08896 15.0233531,365.905027 C15.4701143,365.558872 15.7402468,364.963899 15.7402468,364.314918 C15.7402468,362.908675 14.6181766,362 12.8831183,362 C12.0519171,362 11.376608,362.194743 10.8467446,362.594973 C10.3584658,362.962749 10.1194715,363.341358 9.85971834,364.141818 L11.3454698,364.401446 C11.4701567,363.957952 11.5740178,363.77402 11.7817846,363.568466 C12.0311583,363.352169 12.4052189,363.233209 12.9142566,363.233209 C13.7974218,363.233209 14.2857006,363.65506 14.2857006,364.401446 C14.2857006,365.234337 13.6727349,365.731993 12.6337446,365.731993 C12.1869834,365.731993 11.9584355,365.721161 11.6259818,365.677831 L11.6259818,367.019189 C11.9791943,366.975925 12.2805321,366.965115 12.7376726,366.965115 C13.1948355,366.965115 13.6831143,367.073264 13.9324881,367.224743 C14.3064594,367.451939 14.5142262,367.862979 14.5142262,368.360548 C14.5142262,369.215148 13.8597652,369.766791 12.8311543,369.766791 C12.3324961,369.766791 11.9168509,369.626188 11.5740178,369.344918 C11.3142646,369.128554 11.2207829,368.95552 11.085739,368.457864 L9.59996518,368.760756 Z M0,375 L15.999942,375 L15.999942,374.15857 L0,374.15857 L0,375 Z" id="123"></path>
        </g>
    </g>
</svg>