<?xml version="1.0" encoding="UTF-8"?>
<svg width="30px" height="30px" viewBox="0 0 30 30" version="1.1" xmlns="http://www.w3.org/2000/svg" xmlns:xlink="http://www.w3.org/1999/xlink">
    <!-- Generator: Sketch 45.1 (43504) - http://www.bohemiancoding.com/sketch -->
    <title>合并单元格 copy</title>
    <desc>Created with Sketch.</desc>
    <defs></defs>
    <g id="2.0业务端" stroke="none" stroke-width="1" fill="none" fill-rule="evenodd">
        <g id="06设计器(新）—交叉表" transform="translate(-1351.000000, -312.000000)">
            <g id="右侧菜单栏" transform="translate(1216.000000, 54.000000)">
                <g id="合并单元格-copy" transform="translate(136.000000, 259.000000)">
                    <rect id="Rectangle-7" stroke="#979797" stroke-width="0.75" stroke-linecap="round" stroke-linejoin="round" stroke-dasharray="1,2" x="0" y="0" width="28" height="28" rx="2"></rect>
                    <path d="M22.75,24 L16.5,24 C15.8096924,24 15.25,23.4403076 15.25,22.75 L15.25,17.75 L16.5,17.75 L16.5,22.75 L22.75,22.75 L22.75,5.25 L16.5,5.25 L16.5,10.25 L15.25,10.25 L15.25,5.25 C15.25,5.25 15.8096924,4 16.5,4 L22.75,4 C23.4403076,4 24,4.55969238 24,5.25 L24,22.75 C24,22.75 23.4403076,24 22.75,24 Z M11.5,5.25 L5.25,5.25 L5.25,22.75 L11.5,22.75 L11.5,17.75 L12.75,17.75 L12.75,22.75 C12.75,22.75 12.1903076,24 11.5,24 L5.25,24 C4.55969238,24 4,23.4403076 4,22.75 L4,5.25 C4,5.25 4.55969238,4 5.25,4 L11.5,4 C12.1903076,4 12.75,4.55969238 12.75,5.25 L12.75,10.25 L11.5,10.25 L11.5,5.25 Z" id="合并单元格" stroke="#F5F5F5" stroke-width="0.25" fill="#979797"></path>
                    <g id="绑定" transform="translate(13.778175, 14.778175) rotate(45.000000) translate(-13.778175, -14.778175) translate(8.278175, 9.278175)" stroke="#979797" stroke-width="0.3" fill="#979797">
                        <path d="M5.51188072,7.29989239 C4.84320047,7.29989239 4.17400338,7.04515272 3.66517768,6.53626621 C3.56038144,6.43146997 3.56038144,6.26176513 3.66517768,6.15695369 C3.76998911,6.05209665 3.93981556,6.05209665 4.0446118,6.15695369 C4.85371961,6.9660615 6.17063466,6.9660615 6.97972727,6.15695369 L9.05129987,4.08480345 C9.86039248,3.27569564 9.86039248,1.95932783 9.05129987,1.15022002 C8.24266329,0.341598639 6.92574824,0.341066602 6.11612359,1.15022002 L5.08006368,2.1857327 C4.97526744,2.29054413 4.80550179,2.29054413 4.70069036,2.1857327 C4.59589412,2.08093646 4.59589412,1.91111001 4.70069036,1.80629857 L5.73675027,0.770785894 C6.75545056,-0.247914392 8.4119577,-0.247914392 9.43067319,0.770785894 C10.4489022,1.78903015 10.4489022,3.44605413 9.43067319,4.46429838 L7.3591614,6.53632701 C6.84980365,7.04515272 6.18060657,7.29989239 5.51188072,7.29989239 Z" id="Fill-1"></path>
                        <path d="M2.61184933,10.1999086 C1.94312348,10.1999086 1.2739264,9.94529051 0.765100691,9.4364192 C0.271415259,8.94279457 0,8.28712644 0,7.58918412 C0,6.89165222 0.271415259,6.23557367 0.765100691,5.74237467 L2.83665809,3.67086288 C3.32975068,3.17719265 3.98589003,2.90576219 4.68336113,2.90576219 C5.38142506,2.90576219 6.03697158,3.17719265 6.53064181,3.67086288 C6.63545324,3.77567432 6.63545324,3.94543996 6.53064181,4.0502362 C6.42584557,4.15504764 6.25601912,4.15504764 6.15120768,4.0502362 C5.36728806,3.26631657 4.00002704,3.26631657 3.21609221,4.0502362 L1.14453481,6.1218088 C0.752575002,6.51382941 0.536613277,7.03469437 0.536613277,7.58918412 C0.536613277,8.14355226 0.752575002,8.66501006 1.14453481,9.05698507 C1.95364263,9.86613849 3.27054247,9.86613849 4.07971109,9.05698507 L5.11516297,8.02098596 C5.2199744,7.91618972 5.38978565,7.91618972 5.49459709,8.02098596 C5.59939333,8.1257974 5.59939333,8.29556304 5.49459709,8.40035928 L4.45908441,9.4364192 C3.94972667,9.94529051 3.28052958,10.1999086 2.61184933,10.1999086 Z" id="Fill-2"></path>
                    </g>
                </g>
            </g>
        </g>
    </g>
</svg>