<?xml version="1.0" standalone="no"?><!DOCTYPE svg PUBLIC "-//W3C//DTD SVG 1.1//EN" "http://www.w3.org/Graphics/SVG/1.1/DTD/svg11.dtd"><svg t="1525228339193" class="icon" style="" viewBox="0 0 1024 1024" version="1.1" xmlns="http://www.w3.org/2000/svg" p-id="3131" xmlns:xlink="http://www.w3.org/1999/xlink" width="200" height="200"><defs><style type="text/css"></style></defs><path d="M602 332C618.56 332 632 318.59000000000003 632 302L632 182C632 165.40999999999997 618.56 152 602 152 585.44 152 572 165.40999999999997 572 182L572 302C572 318.59000000000003 585.44 332 602 332L602 332ZM932 872C932 905.12 905.12 932 872 932L152 932C118.88 932 92 905.12 92 872L92 152C92 118.88 118.88 92 152 92L212 92 212 392C212 425.12 238.88 452 272 452L752 452C785.12 452 812 425.12 812 392L812 92 872 92C905.12 92 932 118.88 932 152L932 872 932 872ZM272 92L752 92 752 362C752 378.59000000000003 738.56 392 722 392L302 392C285.44 392 272 378.59000000000003 272 362L272 92 272 92ZM872 32L152 32C85.73000000000002 32 32 85.73000000000002 32 152L32 872C32 938.27 85.73000000000002 992 152 992L872 992C938.27 992 992 938.27 992 872L992 152C992 85.73000000000002 938.27 32 872 32L872 32Z" p-id="3132" fill="#ffffff"></path></svg>