<?xml version="1.0" encoding="UTF-8"?>
<svg width="16px" height="16px" viewBox="0 0 16 16" version="1.1" xmlns="http://www.w3.org/2000/svg" xmlns:xlink="http://www.w3.org/1999/xlink">
    <!-- Generator: Sketch 45.1 (43504) - http://www.bohemiancoding.com/sketch -->
    <title>表格图标</title>
    <desc>Created with Sketch.</desc>
    <defs></defs>
    <g id="2.0业务端" stroke="none" stroke-width="1" fill="none" fill-rule="evenodd">
        <g id="图表工具-copy" transform="translate(0.000000, -106.000000)" fill="#666666">
            <g id="表格图标" transform="translate(0.000000, 106.000000)">
                <path d="M0.939257813,14.4326172 C0.939257813,14.4163312 14.5761625,14.4252012 14.5761625,14.4252012 C14.5838289,14.4252012 14.5839462,1.52731314 14.5839462,1.52731314 C14.5839462,1.54359914 0.947041509,1.53472908 0.947041509,1.53472908 C0.939375138,1.53472908 0.939257813,14.4326172 0.939257813,14.4326172 Z M0,1.52731314 C0,0.683801386 0.494147813,0 1.10574922,0 L14.2694891,0 C14.8801775,0 15.3752383,0.699160058 15.3752383,1.52731314 L15.3752383,13.8164369 C15.3752383,14.6599486 14.8810905,15.34375 14.2694891,15.34375 L1.10574922,15.34375 C0.49506079,15.34375 0,14.6445899 0,13.8164369 L0,1.52731314 Z" id="Rectangle-13" fill-rule="nonzero"></path>
                <path d="M5.97363281,14.9520004 L9.9484375,14.9520004 L9.9484375,1.6 L5.97363281,1.6 L5.97363281,14.9520004 Z M5.0739914,0 L10.7882771,0 L10.7882771,15.34375 L5.0739914,15.34375 L5.0739914,0 Z" id="Rectangle-14" fill-rule="nonzero"></path>
                <path d="M0.519365099,4.03261634 L0.519365099,8.76269412 L14.6146032,8.76269412 L14.6146032,4.03261634 L0.519365099,4.03261634 Z M15.3752383,2.78392857 L15.3752383,9.61992188 L0,9.61992188 L0,2.78392857 L15.3752383,2.78392857 Z" id="Rectangle-14" fill-rule="nonzero"></path>
                <rect id="Rectangle-16" x="0.761904762" y="0.9171875" width="14.4761905" height="3.0828125"></rect>
            </g>
        </g>
    </g>
</svg>