<?xml version="1.0" encoding="UTF-8"?>
<svg width="16px" height="16px" viewBox="0 0 16 16" version="1.1" xmlns="http://www.w3.org/2000/svg" xmlns:xlink="http://www.w3.org/1999/xlink">
    <!-- Generator: Sketch 45.1 (43504) - http://www.bohemiancoding.com/sketch -->
    <title>表格图标</title>
    <desc>Created with Sketch.</desc>
    <defs></defs>
    <g id="2.0业务端" stroke="none" stroke-width="1" fill="none" fill-rule="evenodd">
        <g id="06设计器(新）—对齐方式" transform="translate(-1190.000000, -279.000000)" fill-rule="nonzero" fill="#666666">
            <g id="图表工具" transform="translate(1190.000000, 64.000000)">
                <g id="表格图标" transform="translate(0.000000, 215.000000)">
                    <path d="M1.09823131,13.8164369 C1.09823131,13.8009285 14.2694891,13.809375 14.2694891,13.809375 C14.2768937,13.809375 14.277007,1.52731314 14.277007,1.52731314 C14.277007,1.54282154 1.10574922,1.534375 1.10574922,1.534375 C1.09834463,1.534375 1.09823131,13.8164369 1.09823131,13.8164369 Z M0,1.52731314 C0,0.683801386 0.494147813,0 1.10574922,0 L14.2694891,0 C14.8801775,0 15.3752383,0.699160058 15.3752383,1.52731314 L15.3752383,13.8164369 C15.3752383,14.6599486 14.8810905,15.34375 14.2694891,15.34375 L1.10574922,15.34375 C0.49506079,15.34375 0,14.6445899 0,13.8164369 L0,1.52731314 Z" id="Rectangle-13"></path>
                    <path d="M5.83589616,14.7468868 L9.7825627,14.7468868 L9.7825627,1.39488636 L5.83589616,1.39488636 L5.83589616,14.7468868 Z M4.65873016,0 L10.9596829,0 L10.9596829,15.34375 L4.65873016,15.34375 L4.65873016,0 Z" id="Rectangle-14"></path>
                    <path d="M1.28126986,5.69910714 L1.28126986,9.64464286 L14.0939685,9.64464286 L14.0939685,5.69910714 L1.28126986,5.69910714 Z M15.3752383,4.38392857 L15.3752383,10.9598214 L0,10.9598214 L0,4.38392857 L15.3752383,4.38392857 Z" id="Rectangle-14"></path>
                </g>
            </g>
        </g>
    </g>
</svg>