<?xml version="1.0" encoding="UTF-8"?>
<svg width="14px" height="14px" viewBox="0 0 14 14" version="1.1" xmlns="http://www.w3.org/2000/svg" xmlns:xlink="http://www.w3.org/1999/xlink">
    <!-- Generator: Sketch 45.1 (43504) - http://www.bohemiancoding.com/sketch -->
    <title>标尺</title>
    <desc>Created with Sketch.</desc>
    <defs></defs>
    <g id="2.0业务端" stroke="none" stroke-width="1" fill="none" fill-rule="evenodd">
        <g id="标尺" fill-rule="nonzero" fill="#333333">
            <path d="M12.4985529,0.0040127496 L8.22764632,0.00556177237 C8.17699492,-0.00236135351 8.10429485,-0.000830147594 8.09154295,0.0040127496 L1.50142924,0.0040127496 C0.67394497,0.0040127496 0,0.67726517 0,1.50424413 L0,12.4989852 C0,13.3262312 0.673944988,14 1.50142924,14 L4.09745584,14 C4.92542097,14 5.59886727,13.3262312 5.59886727,12.4989852 L5.59886727,5.34678433 L12.9268814,5.34678433 C12.959153,5.34678433 12.894129,5.34420264 12.9268814,5.33756144 C13.4810903,5.37210273 14,4.88072622 14,4.35840497 L14,1.50476047 C14,0.677799327 13.3260372,0.0040127496 12.4985529,0.0040127496 L12.4985529,0.0040127496 Z M13.0236248,3.76546994 C13.0850156,4.38986603 12.3250844,4.33000634 12.3250844,4.33000634 L5.0257264,4.33000632 C4.99452344,4.33999481 4.96944706,4.35406059 4.94180608,4.36581175 C4.92851989,4.37093953 4.91623104,4.37553316 4.90396001,4.38142656 C4.72892417,4.46532272 4.62247431,4.59091769 4.62247431,4.82088433 L4.62247431,12.4268758 C4.62247431,12.7558371 4.35432824,13.0233896 4.02582435,13.0233896 L1.573595,13.0233896 C1.24453902,13.0233896 0.976909418,12.7558371 0.976909418,12.4268758 L0.976909418,11.0737476 L3.40406241,11.0737476 C3.68499601,11.0737476 3.91273138,10.8455614 3.91273138,10.5652072 C3.91273138,10.2848531 3.68499601,10.0561684 3.40406241,10.0561684 L0.976891613,10.0561684 L0.976891613,8.40171192 L2.64055138,8.40171192 C2.92098629,8.40171192 3.14971904,8.17300943 3.14971904,7.89217451 C3.14971904,7.6128352 2.92096849,7.38415051 2.64055138,7.38415051 L0.976891613,7.38415051 L0.976891613,5.72917773 L3.40404461,5.72917773 C3.68497821,5.72917773 3.91271358,5.50100938 3.91271358,5.22013886 C3.91271358,4.93978468 3.68497821,4.71136705 3.40404461,4.71136705 L0.976891613,4.71136707 L0.976891613,1.57715474 C0.976891613,1.24819349 1.24453902,0.980391674 1.5735772,0.980391674 L4.5861421,0.980391674 L4.5861421,2.78476444 C4.5861421,3.07277468 4.81387747,3.30758421 5.09530975,3.30758421 C5.37574466,3.30758421 5.60399654,3.07277468 5.60399654,2.78476444 L5.60399653,0.980391674 L7.64120144,0.980391674 L7.64120144,2.40285175 C7.64120144,2.69086199 7.8694177,2.925173 8.14931831,2.925173 C8.43026971,2.925173 8.65848597,2.69086199 8.65848597,2.40285175 L8.65848597,0.980391674 L10.313971,0.980391674 L10.313971,2.78476444 C10.313971,3.07277468 10.5427215,3.30758421 10.8231386,3.30758421 C11.1035735,3.30758421 11.3313089,3.07277468 11.3313089,2.78476444 L11.3313089,0.980391674 L12.426405,0.980391674 C12.7554432,0.980391674 13.0235892,1.24819349 13.0235892,1.57715474 L13.0235892,3.76546994 L13.0236248,3.76546994 Z" id="Shape"></path>
        </g>
    </g>
</svg>