<?xml version="1.0" encoding="UTF-8"?>
<svg width="12px" height="12px" viewBox="0 0 12 12" version="1.1" xmlns="http://www.w3.org/2000/svg" xmlns:xlink="http://www.w3.org/1999/xlink">
    <!-- Generator: Sketch 49.2 (51160) - http://www.bohemiancoding.com/sketch -->
    <title>导出</title>
    <desc>Created with Sketch.</desc>
    <defs></defs>
    <g id="-" stroke="none" stroke-width="1" fill="none" fill-rule="evenodd">
        <g id="06设计器(新）—预览" transform="translate(-1132.000000, -102.000000)" fill="#51A6FF" fill-rule="nonzero">
            <g id="弹窗" transform="translate(232.000000, 81.000000)">
                <g id="导出" transform="translate(900.000000, 21.000000)">
                    <path d="M11.1890807,11.1906491 L11.1890807,5.60154386 L11.9875368,5.60154386 L11.9875368,11.9890947 L0.0109052632,11.9890947 L0.0109052632,5.60154386 L0.809347368,5.60155789 L0.809347368,11.1906491 L11.1890667,11.1906491 L11.1890807,11.1906491 Z M11.9875368,11.1906386 L11.1890807,11.9890947 L11.1890807,11.1906386 L11.9875368,11.1906386 Z M0.809361404,11.9890947 L0.0109052632,11.1906386 L0.809361404,11.1906386 L0.809361404,11.9890947 Z M11.1890807,5.60154386 L11.9875368,5.60154386 L11.9875368,11.9890947 L0.0109052632,11.9890947 L0.0109052632,5.60154386 L0.809347368,5.60155789 L0.809347368,11.1906491 L11.1890667,11.1906491 L11.1890667,5.60155789 L11.1890807,5.60154386 Z M0.809361404,11.9890807 L0.0109052632,11.1906386 L0.809361404,11.1906386 L0.809361404,11.9890947 L0.809361404,11.9890807 Z M11.9875228,11.1906386 L11.1890807,11.9890947 L11.1890807,11.1906386 L11.9875368,11.1906386 L11.9875228,11.1906386 Z" id="Shape"></path>
                    <polygon id="Shape" points="5.6 0.810919298 6.39844211 0.810919298 6.39844211 7.59091951 5.6 7.59091951"></polygon>
                    <polygon id="Shape" points="6.06548772 0.00210526316 9.56585263 3.50245614 9.0013614 4.06694737 5.50099649 0.566596491"></polygon>
                    <polygon id="Shape" points="2.54756491 3.53678596 6.04712982 0.0364350877 6.61162105 0.600926316 3.11127018 4.10127719"></polygon>
                </g>
            </g>
        </g>
    </g>
</svg>