<?xml version="1.0" encoding="UTF-8"?>
<svg width="16px" height="18px" viewBox="0 0 16 18" version="1.1" xmlns="http://www.w3.org/2000/svg" xmlns:xlink="http://www.w3.org/1999/xlink">
    <!-- Generator: Sketch 45.1 (43504) - http://www.bohemiancoding.com/sketch -->
    <title>列</title>
    <desc>Created with Sketch.</desc>
    <defs></defs>
    <g id="2.0业务端" stroke="none" stroke-width="1" fill="none" fill-rule="evenodd">
        <g id="图表工具-copy" transform="translate(0.000000, -322.000000)" fill="#666666">
            <path d="M16,322.779021 C16,322.349462 15.6778729,322 15.2819137,322 L8.95910178,322 C8.56314255,322 8.24096609,322.349462 8.24096609,322.779021 L8.24096609,325.672966 L0.692669535,325.672966 C0.310183686,325.672966 0,326.009257 0,326.424199 L0,339.248552 C0,339.663495 0.310183686,340 0.692669535,340 L12.5139006,340 C12.8963864,340 13.2065701,339.663495 13.2065701,339.248552 L13.2065701,335.777597 L15.2819137,335.777597 C15.6778729,335.777597 16,335.428081 16,334.998522 L16,326.865109 C16,326.863003 16,325.500974 16,322.779021 Z M11.8211817,338.497104 L1.38533907,338.497104 L1.38533907,327.175701 L8.24096609,327.175701 L8.24096609,329.987834 L6.73515631,329.987834 C6.64104011,329.987834 6.5524021,330.036557 6.49668255,330.118742 L4.76296056,332.673665 L3.91448357,331.996264 C3.82949768,331.928267 3.71726893,331.914668 3.62029026,331.960713 C3.52336094,332.006705 3.45643825,332.105434 3.44488965,332.219423 L3.0238591,336.321359 C3.01226114,336.435348 3.0575672,336.547463 3.14260245,336.61562 C3.19447246,336.656847 3.25616373,336.678156 3.31820047,336.678156 C3.35852188,336.678156 3.39899135,336.669161 3.43699317,336.651172 L6.92215488,334.996005 C7.01893613,334.950014 7.08580947,334.851498 7.09755548,334.737295 C7.10935085,334.623306 7.06404479,334.511192 6.97881213,334.443034 L6.13038449,333.765633 L7.44381622,331.829752 L8.24096609,331.829752 L8.24096609,334.998522 C8.24096609,335.428081 8.56314255,335.777597 8.95910178,335.777597 L11.8211817,335.777597 L11.8211817,338.497104 Z M9.67704005,334.219447 L14.563778,334.219447 L14.563778,331.710783 L9.67704005,331.710783 L9.67704005,334.219447 Z M9.67704005,330.152848 L14.563778,330.152848 L14.563778,327.644184 L9.67704005,327.644184 L9.67704005,330.152848 Z" id="列"></path>
        </g>
    </g>
</svg>