<?xml version="1.0" encoding="UTF-8"?>
<svg width="16px" height="16px" viewBox="0 0 16 16" version="1.1" xmlns="http://www.w3.org/2000/svg" xmlns:xlink="http://www.w3.org/1999/xlink">
    <!-- Generator: Sketch 45.1 (43504) - http://www.bohemiancoding.com/sketch -->
    <title>排序03</title>
    <desc>Created with Sketch.</desc>
    <defs></defs>
    <g id="2.0业务端" stroke="none" stroke-width="1" fill="none" fill-rule="evenodd">
        <g id="图表工具-copy" transform="translate(0.000000, -69.000000)" fill="#666666">
            <g id="排序03" transform="translate(0.000000, 69.000000)">
                <path d="M15.6884778,3.07266 L11.8456407,0.179531469 C11.7244237,0.0691993032 11.54007,0.000605469489 11.3332413,7.81250954e-05 C10.9615955,0 10.6666667,0.222246365 10.6666667,0.496367793 L10.6666667,15.5035541 C10.6666667,15.7858591 10.9641898,16 11.3308588,16 C11.7002279,16 11.9950509,15.777695 11.9950509,15.5035541 L11.9950509,1.70617396 L14.7493171,3.77977024 C15.0069993,3.97369626 15.4285984,3.97461423 15.6879484,3.77937961 C15.9491514,3.58277781 15.947616,3.26767977 15.6884778,3.07266 Z" id="Fill-2"></path>
                <path d="M8,9 L6.72116788,9 L5.71678832,6.26193724 L2.14306569,6.26193724 L1.19708029,9 L0,9 L3.28759124,0 L4.5080292,0 L8,9 Z M5.37226277,5.3165075 C4.67152934,3.36833951 4.27639947,2.26227963 4.18686131,1.99829468 C4.09732315,1.73430973 3.99805407,1.3813119 3.88905109,0.939290587 L3.85985401,0.939290587 C3.75085104,1.54502349 3.60486709,2.1057273 3.42189781,2.62141883 L2.46423358,5.3165075 L5.37226277,5.3165075 Z" id="A"></path>
                <path d="M6.77083333,15.6776316 L0,15.6776316 L0,14.8812917 L4.38731306,10.7858297 C4.38731306,10.7770787 4.49052001,10.681548 4.69693701,10.4992348 C4.90335402,10.3169217 5.09613682,10.1586763 5.2752912,10.0244938 L0.490724763,10.0244938 L0.490724763,9.26315789 L6.6247843,9.26315789 L6.6247843,10.0244938 L1.81685001,14.4568689 L1.30275741,14.9162957 L6.77083333,14.9162957 L6.77083333,15.6776316 Z" id="Z"></path>
            </g>
        </g>
    </g>
</svg>