<?xml version="1.0" encoding="UTF-8"?>
<svg width="30px" height="30px" viewBox="0 0 30 30" version="1.1" xmlns="http://www.w3.org/2000/svg" xmlns:xlink="http://www.w3.org/1999/xlink">
    <!-- Generator: Sketch 45.1 (43504) - http://www.bohemiancoding.com/sketch -->
    <title>取消合并单元格</title>
    <desc>Created with Sketch.</desc>
    <defs></defs>
    <g id="2.0业务端" stroke="none" stroke-width="1" fill="none" fill-rule="evenodd">
        <g id="06设计器(新）—交叉表" transform="translate(-1301.000000, -312.000000)">
            <g id="右侧菜单栏" transform="translate(1216.000000, 54.000000)">
                <g id="取消合并单元格" transform="translate(86.000000, 259.000000)">
                    <rect id="Rectangle-7" stroke="#979797" stroke-width="0.75" stroke-linecap="round" stroke-linejoin="round" stroke-dasharray="1,2" x="0" y="0" width="28" height="28" rx="2"></rect>
                    <path d="M22.727939,13.25 L22.727939,5.25 L16.4852926,5.25 L16.4852926,10.25 L15.2367634,10.25 L15.2367634,5.25 C15.2367634,5.25 15.7957972,4 16.4852926,4 L22.727939,4 C23.4174344,4 23.9764682,4.55969238 23.9764682,5.25 L23.9764682,14.25 C24.1074988,14.25 23.6913223,13.9166667 22.727939,13.25 Z M8.99411706,15.25 L6.49705853,15.25 L6.49705853,12.75 L8.99411706,12.75 L8.99411706,10.25 L12.7397048,14 L8.99411706,17.75 L8.99411706,15.25 Z M11.4911756,5.25 L5.24852926,5.25 L5.24852926,22.75 L11.4911756,22.75 L11.4911756,17.75 L12.7397048,17.75 L12.7397048,22.75 C12.7397048,22.75 12.180671,24 11.4911756,24 L5.24852926,24 C4.55903385,24 4,23.4403076 4,22.75 L4,5.25 C4,5.25 4.55903385,4 5.24852926,4 L11.4911756,4 C12.180671,4 12.7397048,4.55969238 12.7397048,5.25 L12.7397048,10.25 L11.4911756,10.25 L11.4911756,5.25 Z" id="合并单元格" fill="#979797"></path>
                    <path d="M20,24 C22.7614237,24 25,21.7614237 25,19 C25,16.2385763 22.7614237,14 20,14 C17.2385763,14 15,16.2385763 15,19 C15,21.7614237 17.2385763,24 20,24 Z" id="Oval-5" stroke="#979797"></path>
                    <path d="M19.5,18.5 C18.4920459,18.5 18.4369363,18.5 18,18.5 L17.5,18.5 L17.5,19.5 L18,19.5 C18.4369363,19.5 18.4920459,19.5 19.5,19.5 C19.5,20.5079541 19.5,20.5630637 19.5,21 L19.5,21.5 L20.5,21.5 L20.5,21 C20.5,20.5630637 20.5,20.5079541 20.5,19.5 C21.5079541,19.5 21.5630637,19.5 22,19.5 L22.5,19.5 L22.5,18.5 L22,18.5 C21.5630637,18.5 21.5079541,18.5 20.5,18.5 C20.5,17.4920459 20.5,17.4369363 20.5,17 L20.5,16.5 L19.5,16.5 L19.5,17 C19.5,17.4369363 19.5,17.4920459 19.5,18.5 Z" id="Combined-Shape" fill="#979797" transform="translate(20.000000, 19.000000) rotate(45.000000) translate(-20.000000, -19.000000) "></path>
                </g>
            </g>
        </g>
    </g>
</svg>