<?xml version="1.0" encoding="UTF-8"?>
<svg width="16px" height="16px" viewBox="0 0 16 16" version="1.1" xmlns="http://www.w3.org/2000/svg" xmlns:xlink="http://www.w3.org/1999/xlink">
    <!-- Generator: Sketch 45.1 (43504) - http://www.bohemiancoding.com/sketch -->
    <title>筛选</title>
    <desc>Created with Sketch.</desc>
    <defs></defs>
    <g id="2.0业务端" stroke="none" stroke-width="1" fill="none" fill-rule="evenodd">
        <g id="图表工具-copy" fill="#666666">
            <g id="筛选">
                <path d="M13.3530701,3.39373666 C13.4412527,3.30114487 13.5232015,3.2018712 13.5987867,3.10262026 C14.0272972,2.4938645 14.0777739,1.60721975 13.712251,0.972100107 C13.3404725,0.330230397 12.7922422,0.0126592107 12.0801576,0.0126592107 L1.87164109,0.0126592107 C1.70142302,0.0126592107 1.52505772,0.0325457625 1.36120336,0.0787962001 C0.57351192,0.290548204 -0.00625547044,1.0382371 8.65809058e-05,1.94467749 C8.65809058e-05,2.48729626 0.20173351,2.95045973 0.560914398,3.32759967 C1.87789656,4.71706736 3.20122076,6.09998953 4.51826786,7.4828208 C4.56231589,7.52916215 4.575,7.56884434 4.575,7.63498133 L4.575,12.0814098 C4.60645051,12.458527 5.00351054,12.6835064 5.31855682,12.5114593 C5.52020374,12.3989582 5.59578888,12.2203429 5.59578888,11.9887271 L5.59578888,7.41002466 C5.59578888,7.20493181 5.53280127,7.03954388 5.39414195,6.88738335 C4.05196474,5.48457462 2.71597808,4.07528856 1.38005635,2.67257074 C1.31706874,2.60634284 1.24773908,2.52697845 1.19098529,2.45418231 C1.02087546,2.21597551 0.976740843,1.95133664 1.06501008,1.6667885 C1.17838777,1.30946694 1.4809231,1.09780584 1.86529903,1.09780584 L12.1683402,1.09780584 C12.678778,1.12426064 13.0443009,1.6535611 12.8992779,2.16963416 C12.8552299,2.34170397 12.7543631,2.48063711 12.6409854,2.60634284 C11.235734,4.0818568 9.83673809,5.55737076 8.4314867,7.02622557 C8.28657191,7.17181786 8.2235843,7.33720578 8.2235843,7.55561694 L8.2235843,15.0257558 C8.2235843,15.3235313 8.45668174,15.5683064 8.7402775,15.5683064 C9.01750956,15.5683064 9.24437318,15.3367587 9.25071523,15.0522333 C9.25071523,15.0455742 9.24437318,10.2022102 9.24437318,7.79380101 C9.24437318,7.72757311 9.26331275,7.68123177 9.30744737,7.63498133 C10.6559666,6.21903611 12.0045508,4.80968187 13.3530701,3.39373666 Z" id="Fill-1"></path>
                <path d="M15.161637,8.93187996 L11.2419895,8.93187996 C11.0340871,8.93187996 10.8639556,9.11049529 10.8639556,9.32888372 L10.8639556,9.36190676 C10.8639556,9.58031792 11.0340871,9.75893324 11.2419895,9.75893324 L15.161637,9.75893324 C15.3695394,9.75893324 15.5396708,9.58031792 15.5396708,9.36190676 L15.5396708,9.32888372 C15.5396708,9.11049529 15.3695394,8.93187996 15.161637,8.93187996 Z" id="Fill-2"></path>
                <path d="M15.161637,11.3800395 L11.2419895,11.3800395 C11.0340871,11.3800395 10.8639556,11.5586775 10.8639556,11.7769751 L10.8639556,11.810089 C10.8639556,12.0285002 11.0340871,12.2071155 11.2419895,12.2071155 L15.161637,12.2071155 C15.3695394,12.2071155 15.5396708,12.0284093 15.5396708,11.810089 L15.5396708,11.7769751 C15.5396708,11.5586775 15.3695394,11.3800395 15.161637,11.3800395 Z" id="Fill-3"></path>
                <path d="M15.161637,13.7884486 L11.2419895,13.7884486 C11.0340871,13.7884486 10.8639556,13.9671549 10.8639556,14.1854751 L10.8639556,14.2185891 C10.8639556,14.4368866 11.0340871,14.6155246 11.2419895,14.6155246 L15.161637,14.6155246 C15.3695394,14.6155246 15.5396708,14.4368866 15.5396708,14.2185891 L15.5396708,14.1854751 C15.5396708,13.9671549 15.3695394,13.7884486 15.161637,13.7884486 Z" id="Fill-4"></path>
            </g>
        </g>
    </g>
</svg>