<?xml version="1.0" standalone="no"?><!DOCTYPE svg PUBLIC "-//W3C//DTD SVG 1.1//EN" "http://www.w3.org/Graphics/SVG/1.1/DTD/svg11.dtd"><svg width="1024" height="1024" viewBox="0 0 1024 1024" version="1.1" xmlns="http://www.w3.org/2000/svg" xmlns:xlink="http://www.w3.org/1999/xlink"><defs><style type="text/css"><![CDATA[]]></style></defs><g class="transform-group"><g transform="scale(1, 1)"><path d="M755.284909 590.600149c4.646833-7.318686 2.591011-17.092283-4.52506-21.838378-22.944572-15.293311-46.809095-27.972075-71.232344-38.33919 4.682649-4.091178 9.392928-8.157797 13.812587-12.618389 23.907503-24.02416 42.826388-52.099588 56.205093-83.488483 14.314007-33.638121 21.570271-69.421092 21.570271-106.34812 0-146.573263-116.269074-265.823228-259.178901-265.823228-142.921084 0-259.176854 119.249965-259.176854 265.823228 0 81.196277 35.769668 153.87046 91.869361 202.679096-158.973688 67.659983-271.237541 228.17477-271.237541 415.417291 0 8.711406 6.875594 15.769149 15.391549 15.769149 8.491395 0 15.369036-7.078209 15.369036-15.769149 0-181.063799 112.964818-335.13892 270.242887-393.192104 39.913035 25.765827 86.981027 40.918945 137.54054 40.918945 49.566906 0 97.013521-14.394848 137.985678-40.936341 28.948309 10.571776 57.198723 24.49488 84.09121 42.387389C741.090629 599.946005 750.640122 597.901439 755.284909 590.600149zM511.919159 560.564066c-125.043924 0-226.76056-104.368022-226.76056-232.594429 0-128.250966 101.739149-232.594429 226.777957-232.594429 125.045971 0 226.780003 104.343463 226.780003 232.594429 0 32.348756-6.356778 63.654762-18.860557 93.056396-11.698436 27.461445-28.248368 51.998281-49.204655 73.042573C628.051109 536.946159 571.671031 560.564066 511.919159 560.564066zM929.21217 786.300296l-85.582167 0 0-87.775112c1.338485-16.010649-13.144368-21.943778-21.395286-21.943778-15.609513 0.685615-21.395286 13.475919-21.395286 21.943778l0 87.775112L693.861978 786.300296c-15.609513-1.372254-21.397333 13.484106-21.397333 21.943778 0.670266 16.010649 13.140275 21.943778 21.397333 21.943778l106.977453 0L800.839431 939.909813c0 8.465812 13.140275 21.943778 21.395286 21.943778 18.277272-1.372254 21.395286-13.477966 21.395286-21.943778L843.630003 830.187853l85.582167 0c8.255011 0 21.395286-13.474896 21.395286-21.943778C949.268972 789.497105 937.467181 786.300296 929.21217 786.300296z" fill="#272636"></path></g></g></svg>