<?xml version="1.0" encoding="utf-8"?><!DOCTYPE svg PUBLIC "-//W3C//DTD SVG 1.1//EN" "http://www.w3.org/Graphics/SVG/1.1/DTD/svg11.dtd"><svg version="1.1" id="图形" xmlns="http://www.w3.org/2000/svg" xmlns:xlink="http://www.w3.org/1999/xlink" x="0px" y="0px" width="1024px" height="1024px" viewBox="0 0 1024 1024" enable-background="new 0 0 1024 1024" xml:space="preserve"><path fill="#272636" d="M660.495544 449.172461l49.67026 0 0-397.340587-49.67026 0 0 397.340587ZM536.32757 51.831874 536.32757 449.172461 511.493975 449.172461 486.661404 449.172461 486.661404 51.831874 511.493975 51.831874ZM312.824193 449.172461l49.669236 0 0-397.340587-49.669236 0 0 397.340587ZM710.165804 598.173007 710.165804 697.508409c0 27.306926-22.338774 49.666166-49.67026 49.666166L362.493429 747.174576c-27.331485 0-49.669236-22.360264-49.669236-49.666166l0-99.335403L64.488245 598.173007l0-49.668213 99.336426 0 0-645.675512c0-27.308973 22.334681-49.668213 49.666166-49.668213l596.008322 0c27.331485 0 49.67026 22.360264 49.67026 49.668213L859.169419 548.505817l99.332333 0 0 49.668213L710.165804 598.17403zM362.493429 697.508409l298.002115 0 0-99.335403L362.493429 598.173007 362.493429 697.508409zM809.498136-97.169695 213.489814-97.169695 213.489814 548.505817l596.008322 0L809.498136-97.169695z" transform="translate(0, 812) scale(1, -1)"/></svg>