<?xml version="1.0" encoding="UTF-8"?>
<svg width="16px" height="16px" viewBox="0 0 16 16" version="1.1" xmlns="http://www.w3.org/2000/svg" xmlns:xlink="http://www.w3.org/1999/xlink">
    <!-- Generator: Sketch 45.1 (43504) - http://www.bohemiancoding.com/sketch -->
    <title>下钻</title>
    <desc>Created with Sketch.</desc>
    <defs></defs>
    <g id="2.0业务端" stroke="none" stroke-width="1" fill="none" fill-rule="evenodd">
        <g id="图表工具-copy" transform="translate(0.000000, -250.000000)" fill="#666666">
            <g id="下钻" transform="translate(0.000000, 250.000000)">
                <path d="M2.41241908,15.5312316 L9.5704533,15.5312316 L9.5704533,3.38024755 L2.41241908,3.38024755 L2.41241908,15.5312316 Z M3.83959876,14.0985287 L8.14327363,14.0985287 L8.14327363,4.81517261 L3.83959876,4.81517261 L3.83959876,14.0985287 Z" id="Fill-1"></path>
                <polyline id="Fill-2" points="0.00431498012 0.019956783 0.00431498012 13.9427795 2.48974353 13.9427795 2.48974353 12.6083719 1.22383624 12.6083719 1.22383624 1.23947804 5.83788763 1.23947804 5.83788763 3.38577072 7.0806019 3.38577072 7.0806019 0.019956783 0.00431498012 0.019956783"></polyline>
                <polyline id="Fill-3" points="10.2564273 11.6418164 13.0180145 14.9557211 15.7796018 11.6418164 13.570332 11.6418164 13.570332 0.595467256 12.4656971 0.595467256 12.4656971 11.6418164 10.2564273 11.6418164"></polyline>
            </g>
        </g>
    </g>
</svg>