<?xml version="1.0" encoding="UTF-8"?>
<svg width="14px" height="16px" viewBox="0 0 14 16" version="1.1" xmlns="http://www.w3.org/2000/svg" xmlns:xlink="http://www.w3.org/1999/xlink">
    <!-- Generator: Sketch 45.1 (43504) - http://www.bohemiancoding.com/sketch -->
    <title>预警</title>
    <desc>Created with Sketch.</desc>
    <defs></defs>
    <g id="2.0业务端" stroke="none" stroke-width="1" fill="none" fill-rule="evenodd">
        <g id="图表工具-copy" transform="translate(-1.000000, -287.000000)" fill="#666666">
            <path d="M1.87800476,287.857933 L7.99972085,287 L14.1219125,287.857933 C14.6010611,287.923923 15,288.2832 15,288.803452 L15,295.428922 C15,299.30803 10.9623898,301.272723 7.99972085,303 C5.03694847,301.272723 1,299.30803 1,295.428922 L1,288.803452 C1,288.282509 1.39838062,287.924614 1.87800476,287.857933 Z M11.6209399,293.065349 L8.94693457,293.065349 L11.4020436,289.649885 L4.37850177,294.438831 L7.35312259,294.438831 L4.701987,298.70893 L11.6209399,293.065349 Z M2.3169968,289.227315 L2.3169968,295.428922 C2.3169968,298.272341 5.74485674,300.128968 7.99972085,301.395387 C10.254585,300.128968 13.6824242,298.272252 13.6824242,295.428922 L13.6824242,289.227315 L7.99972085,288.43136 L2.3169968,289.227315 Z" id="预警"></path>
        </g>
    </g>
</svg>