<?xml version="1.0" standalone="no"?><!DOCTYPE svg PUBLIC "-//W3C//DTD SVG 1.1//EN" "http://www.w3.org/Graphics/SVG/1.1/DTD/svg11.dtd"><svg t="1525228305915" class="icon" style="" viewBox="0 0 1024 1024" version="1.1" xmlns="http://www.w3.org/2000/svg" p-id="2310" xmlns:xlink="http://www.w3.org/1999/xlink" width="200" height="200"><defs><style type="text/css"></style></defs><path d="M746.666667 1024H106.666667c-59.733333 0-106.666667-46.933333-106.666667-106.666667V106.666667c0-59.733333 46.933333-106.666667 106.666667-106.666667h810.666666c59.733333 0 106.666667 46.933333 106.666667 106.666667v640h-42.666667V106.666667c0-36.266667-27.733333-64-64-64H106.666667C70.4 42.666667 42.666667 70.4 42.666667 106.666667v810.666666c0 36.266667 27.733333 64 64 64h640v42.666667z" p-id="2311" fill="#ffffff"></path><path d="M501.333333 800C343.466667 800 213.333333 669.866667 213.333333 512s130.133333-288 288-288S789.333333 354.133333 789.333333 512s-130.133333 288-288 288z m0-533.333333C366.933333 266.666667 256 377.6 256 512s110.933333 245.333333 245.333333 245.333333S746.666667 646.4 746.666667 512s-110.933333-245.333333-245.333334-245.333333zM697.6 693.333333c8.533333-8.533333 21.333333-8.533333 29.866667 0l226.133333 226.133334c8.533333 8.533333 8.533333 21.333333 0 29.866666s-21.333333 8.533333-29.866667 0L697.6 723.2c-8.533333-8.533333-8.533333-21.333333 0-29.866667z" p-id="2312" fill="#ffffff"></path></svg>