<?xml version="1.0" encoding="UTF-8"?>
<svg width="14px" height="20px" viewBox="0 0 14 20" version="1.1" xmlns="http://www.w3.org/2000/svg" xmlns:xlink="http://www.w3.org/1999/xlink">
    <!-- Generator: Sketch 49.2 (51160) - http://www.bohemiancoding.com/sketch -->
    <title>告警改5</title>
    <desc>Created with Sketch.</desc>
    <defs></defs>
    <g id="可视化高保真定稿" stroke="none" stroke-width="1" fill="none" fill-rule="evenodd">
        <g id="B05-地图-告警修改" transform="translate(-566.000000, -316.000000)">
            <g id="告警改5" transform="translate(563.000000, 316.000000)">
                <rect id="Rectangle-13" x="0" y="0" width="20" height="20"></rect>
                <path d="M16.4265233,4.16735011 C16.062724,3.35542502 15.546595,2.62529092 14.890681,1.99490192 C14.2401434,1.37049762 13.4910394,0.879751746 12.6612903,0.534633714 C11.8064516,0.179541173 10.9121864,0 10.0017921,0 C9.08781362,0 8.19354839,0.179541173 7.33870968,0.534633714 C6.50896057,0.879751746 5.75985663,1.37049762 5.109319,1.99490192 C4.45340502,2.62529092 3.93548387,3.35741993 3.5734767,4.16735011 C3.19354839,5.01717832 3,5.91687909 3,6.83852377 C3,8.12124571 3.28315412,9.43987587 3.84229391,10.758506 C4.35083299,11.5739616 5.19254557,12.8557943 6.36743164,14.6040039 L9.59139785,19.8563671 L10,20 L10.4086022,19.8563671 L13.5327148,14.6040039 C14.6633301,12.9413249 15.5383272,11.6594922 16.1577061,10.758506 C16.7168459,9.43987587 17,8.1192508 17,6.83852377 C17,5.91488418 16.8064516,5.01717832 16.4265233,4.16735011 Z" id="Path" fill="#2FC25B"></path>
                <path d="M10,11 C7.79310345,11 6,9.20689655 6,7 C6,4.79310345 7.79310345,3 10,3 C12.2068966,3 14,4.79310345 14,7 C14,9.20689655 12.2068966,11 10,11 Z" id="Shape" fill="#FFFFFF" fill-rule="nonzero"></path>
            </g>
        </g>
    </g>
</svg>