<?xml version="1.0" encoding="UTF-8"?>
<svg width="14px" height="14px" viewBox="0 0 14 14" version="1.1" xmlns="http://www.w3.org/2000/svg" xmlns:xlink="http://www.w3.org/1999/xlink">
    <!-- Generator: Sketch 47.1 (45422) - http://www.bohemiancoding.com/sketch -->
    <title>Group 6 Copy</title>
    <desc>Created with Sketch.</desc>
    <defs>
        <rect id="path-1" x="0" y="0" width="14" height="14"></rect>
    </defs>
    <g id="切图" stroke="none" stroke-width="1" fill="none" fill-rule="evenodd">
        <g id="C01-弹窗切图" transform="translate(-468.000000, -778.000000)">
            <g id="Group-6-Copy" transform="translate(468.000000, 778.000000)">
                <mask id="mask-2" fill="white">
                    <use xlink:href="#path-1"></use>
                </mask>
                <g id="Mask"></g>
                <g id="Group-11" mask="url(#mask-2)" fill="#000000">
                    <g transform="translate(0.500000, 1.160461)">
                        <path d="M12.0714286,0 L0.928571429,0 C0.417857143,0 0,0.417857143 0,0.928571429 L0,10.2142857 C0,10.725 0.417857143,11.1428571 0.928571429,11.1428571 L12.0714286,11.1428571 C12.5821429,11.1428571 13,10.725 13,10.2142857 L13,0.928571429 C13,0.417857143 12.5821429,0 12.0714286,0 Z M12.0714286,10.2142857 L0.928571429,10.2142857 L0.928571429,2.24949284 L12.0714286,2.24949284 L12.0714286,10.2142857 Z" id="Shape-Copy" fill-rule="nonzero"></path>
                        <path d="M6.5,6.93899606 L7.79289322,8.23188928 L11,8.23188928 C11.2761424,8.23188928 11.5,8.00803165 11.5,7.73188928 C11.5,7.4557469 11.2761424,7.23188928 11,7.23188928 L8.20710678,7.23188928 L7.20710678,6.23188928 L8.20710678,5.23188928 L11,5.23188928 C11.2761424,5.23188928 11.5,5.00803165 11.5,4.73188928 C11.5,4.4557469 11.2761424,4.23188928 11,4.23188928 L7.79289322,4.23188928 L6.5,5.52478249 L5.20710678,4.23188928 L2,4.23188928 C1.72385763,4.23188928 1.5,4.4557469 1.5,4.73188928 C1.5,5.00803165 1.72385763,5.23188928 2,5.23188928 L4.79289322,5.23188928 L5.79289322,6.23188928 L4.79289322,7.23188928 L2,7.23188928 C1.72385763,7.23188928 1.5,7.4557469 1.5,7.73188928 C1.5,8.00803165 1.72385763,8.23188928 2,8.23188928 L5.20710678,8.23188928 L6.5,6.93899606 Z" id="Combined-Shape" fill-rule="evenodd"></path>
                    </g>
                </g>
            </g>
        </g>
    </g>
</svg>