<?xml version="1.0" encoding="UTF-8"?>
<svg width="14px" height="12px" viewBox="0 0 14 12" version="1.1" xmlns="http://www.w3.org/2000/svg" xmlns:xlink="http://www.w3.org/1999/xlink">
    <!-- Generator: Sketch 50.2 (55047) - http://www.bohemiancoding.com/sketch -->
    <title>汇总指标@1x</title>
    <desc>Created with Sketch.</desc>
    <defs></defs>
    <g id="Page-6" stroke="none" stroke-width="1" fill="none" fill-rule="evenodd">
        <g id="明细指标／汇总指标" transform="translate(-1152.000000, -179.000000)" fill="#8882E8">
            <g id="汇总指标" transform="translate(1148.000000, 174.000000)">
                <path d="M10.5176193,9.53517733 L4.55172414,7.89772044 L4.55172414,14.2998169 C4.55172414,14.2998169 4.6444645,14.9978347 4.85655399,15.2125156 C5.06874106,15.4273613 5.47968071,15.6554125 5.47968071,15.6554125 L9.9342431,16.8902479 C9.9342431,16.8902479 10.331976,17.0110409 10.4380858,16.9573954 C10.544163,16.9037498 10.5176193,16.7560517 10.5176193,16.7560517 L10.5176193,9.53517733 Z M17.3850575,7.89772044 L15.4892312,8.42116788 L15.4892312,11.1995064 L14.2429452,11.5349804 L14.2429452,8.7567736 L11.392586,9.54867928 L11.392586,16.1789916 C11.392586,16.1789916 11.3793792,16.8366023 11.4589128,16.9573954 C11.5384789,17.0781884 11.9494185,16.9037498 11.9494185,16.9037498 L15.9532582,15.8031106 C15.9532582,15.8031106 16.8016813,15.5748947 17.1066412,15.2662929 C17.4116012,14.9575594 17.3718507,13.628836 17.3718507,13.628836 L17.3718507,7.89772044 L17.3850575,7.89772044 Z M17.3585138,7.2266078 L11.3130525,5.53553829 C11.3130525,5.53553829 11.0478756,5.4683908 10.9551027,5.4683908 C10.8623623,5.4683908 10.5971529,5.53553829 10.5971529,5.53553829 L8.72787028,6.05895281 L15.1842712,7.81720273 L17.3585138,7.2266078 Z M7.04413346,6.52875471 L4.55172414,7.2266078 L10.9551027,8.9714875 L13.4740882,8.2869717 L7.04413346,6.52875471 Z" id="Fill-4"></path>
            </g>
        </g>
    </g>
</svg>