<?xml version="1.0" encoding="UTF-8"?>
<svg width="14px" height="13px" viewBox="0 0 14 13" version="1.1" xmlns="http://www.w3.org/2000/svg" xmlns:xlink="http://www.w3.org/1999/xlink">
    <!-- Generator: Sketch 50.2 (55047) - http://www.bohemiancoding.com/sketch -->
    <title>自定义维度@1x</title>
    <desc>Created with Sketch.</desc>
    <defs>
        <polygon id="path-1" points="4 4 18 4 18 17 4 17"></polygon>
    </defs>
    <g id="Page-6" stroke="none" stroke-width="1" fill="none" fill-rule="evenodd">
        <g id="自定义维度／统一维度" transform="translate(-1152.000000, -237.000000)">
            <g id="自定义维度" transform="translate(1148.000000, 233.000000)">
                <circle id="Oval-2" cx="11" cy="11" r="11"></circle>
                <mask id="mask-2" fill="white">
                    <use xlink:href="#path-1"></use>
                </mask>
                <g id="Clip-2"></g>
                <path d="M8.84566295,14.8384943 C8.69328268,16.0427798 7.65714518,17 6.43804718,17 C5.09709333,17 4,15.888404 4,14.5297239 C4,13.1710438 5.09709333,12.0593724 6.43804718,12.0593724 C6.6819077,12.0593724 6.89522521,12.0902815 7.10856131,12.1520619 L9.39424682,8.35393939 C8.87618737,7.89071785 8.54092101,7.24226802 8.54092101,6.47027611 C8.54092101,5.11159598 9.63808874,4 10.9790426,4 C12.319922,4 13.4171084,5.11159598 13.4171084,6.47027611 C13.4171084,7.21141548 13.081842,7.89071785 12.5637826,8.35393939 L14.8799739,12.1520619 C15.4894578,11.9667582 16.1599719,12.0285199 16.7390058,12.3681993 C17.8360991,12.9857401 18.2932771,14.3444202 17.8056491,15.4869441 C17.7446933,15.6413199 17.5618816,15.7031003 17.4094455,15.6413199 C17.2570652,15.5795583 17.1961094,15.39433 17.2570652,15.2399353 C17.622763,14.3753293 17.2875897,13.3562721 16.4646953,12.8931259 C15.580938,12.3990519 14.4533203,12.7078222 13.9656922,13.6033562 C13.4780642,14.498796 13.7828062,15.6413199 14.6970878,16.1353939 C15.1847158,16.4133118 15.7942555,16.4441643 16.3123336,16.2280081 C16.4646953,16.1663219 16.6475999,16.2280081 16.7084814,16.3824781 C16.7694372,16.5368539 16.7084814,16.7220822 16.5561197,16.7838438 C15.88568,17.0617805 15.09331,17.0309279 14.4227959,16.6603205 C13.7218317,16.258936 13.2647281,15.5487057 13.1733223,14.8076417 L8.84566295,14.8076417 L8.84566295,14.8384943 Z" id="Path" fill="#ED8B69" mask="url(#mask-2)"></path>
                <path d="M8.84566295,14.2208781 L13.1428164,14.2208781 C13.1733223,13.9121077 13.2647281,13.6341899 13.4171084,13.3254195 C13.6304259,12.9239785 13.9351678,12.6152081 14.3008656,12.3990519 L12.0457045,8.6935623 C11.7104567,8.84801345 11.3447404,8.94062761 10.9790426,8.94062761 C10.6132704,8.94062761 10.2171226,8.84801345 9.91232487,8.6935623 L7.65714518,12.3990519 C8.3275849,12.8005118 8.75425711,13.4489616 8.84566295,14.2208781 Z" id="Path" fill="#FFFFFF" mask="url(#mask-2)"></path>
                <path d="M11.0094926,8.35393939 C12.0151801,8.35393939 12.8380745,7.52018586 12.8380745,6.50120403 C12.8380745,5.48220336 12.0151801,4.64844983 11.0094926,4.64844983 C10.0038051,4.64844983 9.18091072,5.48220336 9.18091072,6.50120403 C9.18091072,7.52018586 10.0038051,8.35393939 11.0094926,8.35393939 Z" id="Path" fill="#ED8B69" mask="url(#mask-2)"></path>
                <path d="M15.5904554,16.94845 C16.915662,16.94845 18,15.864131 18,14.5389176 C18,13.2136797 16.915662,12.1293607 15.5904554,12.1293607 C14.2652487,12.1293607 13.1809107,13.2136797 13.1809107,14.5389176 C13.1809107,15.864131 14.2652487,16.94845 15.5904554,16.94845 Z" id="Path" fill="#ED8B69" mask="url(#mask-2)"></path>
                <path d="M6.43804718,16.3824781 C7.44382768,16.3824781 8.26662907,15.5487057 8.26662907,14.5297239 C8.26662907,13.5107232 7.44382768,12.6769697 6.43804718,12.6769697 C5.4323597,12.6769697 4.6095583,13.5107232 4.6095583,14.5297239 C4.6095583,15.5487057 5.4323597,16.3824781 6.43804718,16.3824781 Z" id="Path" fill="#ED8B69" mask="url(#mask-2)"></path>
            </g>
        </g>
    </g>
</svg>