<?xml version="1.0" encoding="UTF-8"?>
<svg width="14px" height="13px" viewBox="0 0 14 13" version="1.1" xmlns="http://www.w3.org/2000/svg" xmlns:xlink="http://www.w3.org/1999/xlink">
    <!-- Generator: Sketch 50.2 (55047) - http://www.bohemiancoding.com/sketch -->
    <title>细分指标@1x</title>
    <desc>Created with Sketch.</desc>
    <defs></defs>
    <g id="Page-6" stroke="none" stroke-width="1" fill="none" fill-rule="evenodd">
        <g id="明细指标／汇总指标" transform="translate(-1152.000000, -210.000000)" fill="#EDAD38">
            <g id="细分指标" transform="translate(1148.000000, 206.000000)">
                <path d="M11.2152105,14.1892267 L5.92128788,11.7867088 C5.69493132,11.7224208 5.41372019,11.5641134 5.05504813,11.3618932 C4.90045204,11.2828046 4.80168775,11.1251492 4.79800689,10.9513239 C4.79520553,10.7776291 4.88810651,10.6165506 5.03977094,10.5319852 C5.19208685,10.4465396 5.37860544,10.4503538 5.52750109,10.5419283 C5.68551744,10.6309273 5.87535858,10.7254359 6.02308156,10.7950703 L11.2152105,13.1512305 L16.1641747,10.9068896 L16.5971806,10.6921835 L16.9282625,10.529964 C17.0817185,10.4485934 17.267097,10.4560915 17.4134193,10.5498176 C17.5589924,10.6428917 17.6416977,10.8083386 17.6289613,10.9806317 C17.6163877,11.1530551 17.5102617,11.3044513 17.3527339,11.3752593 L17.0225315,11.537381 C16.8659159,11.6166 16.7077366,11.6932435 16.5481893,11.7678658 L16.5481893,11.768909 L11.2152105,14.1892267 Z M11.2152105,16.924725 L5.91138539,14.517643 C5.73845016,14.4612117 5.48000823,14.3371999 5.05553674,14.0972611 C4.94572987,14.0361353 4.8650767,13.9336397 4.83146036,13.8125293 C4.79787659,13.6914189 4.81416358,13.5619301 4.87664047,13.4529144 C5.00872794,13.2254616 5.29896207,13.1465034 5.52798969,13.275764 C5.69199967,13.368349 5.89011459,13.465759 6.04089952,13.5364366 L11.2156991,15.8855878 L16.1646633,13.6403667 L16.5975389,13.4261495 L16.9286208,13.2634084 C17.0822071,13.1820378 17.2676181,13.1895685 17.4139404,13.2832946 C17.5597416,13.3762383 17.6427075,13.5417831 17.6300036,13.7143369 C17.6172672,13.8868908 17.5110109,14.0385804 17.3531248,14.1091276 L17.0230527,14.2723577 C16.8664045,14.3514463 16.7082578,14.4281224 16.5486779,14.502875 L16.5486779,14.5032662 L11.2156991,16.924725 L11.2152105,16.924725 Z M11.2052754,11.3044513 C10.9271263,11.3044513 10.6820722,11.208052 10.4591359,11.1041545 L5.44046342,8.88364452 C5.09638451,8.70802625 4.87624958,8.35757211 4.86722659,7.97119235 C4.84992981,7.55566785 5.04511307,7.16651706 5.37720476,6.95588597 L10.4399173,4.32226389 C11.0822435,4.00476874 11.4854768,4.02057993 12.0206346,4.33370662 L17.0274828,6.93498912 C17.375894,7.12397355 17.5789602,7.51224414 17.5647254,7.95388155 C17.5498391,8.37426351 17.3363167,8.73029231 17.0062446,8.88119949 L11.972816,11.107708 C11.6960675,11.2267972 11.4638477,11.3044513 11.2057966,11.3044513 L11.2052754,11.3044513 Z" id="Combined-Shape"></path>
            </g>
        </g>
    </g>
</svg>