<?xml version="1.0" encoding="UTF-8"?>
<svg width="12px" height="12px" viewBox="0 0 12 12" version="1.1" xmlns="http://www.w3.org/2000/svg" xmlns:xlink="http://www.w3.org/1999/xlink">
    <!-- Generator: Sketch 49.2 (51160) - http://www.bohemiancoding.com/sketch -->
    <title>编辑</title>
    <desc>Created with Sketch.</desc>
    <defs></defs>
    <g id="可视化高保真定稿" stroke="none" stroke-width="1" fill="none" fill-rule="evenodd">
        <g id="TAB绑定-0初始-Copy" transform="translate(-1337.000000, -199.000000)" fill="#999999" fill-rule="nonzero">
            <path d="M1348.51689,210.035688 L1337.4821,210.035688 C1337.21561,210.035688 1337,210.251319 1337,210.517844 C1337,210.784369 1337.21561,211 1337.4821,211 L1348.51689,211 C1348.78339,211 1348.99899,210.784369 1348.99899,210.517844 C1348.99899,210.251319 1348.78339,210.035688 1348.51689,210.035688 Z M1340.10688,208.455287 L1343.26063,207.119982 C1343.31152,207.098553 1343.35706,207.067749 1343.39723,207.028908 L1348.71643,201.709119 C1349.09273,201.332769 1349.09541,200.719359 1348.7191,200.343009 L1347.65714,199.280927 C1347.28083,198.904577 1346.66749,198.907255 1346.29118,199.283605 L1340.97199,204.603395 C1340.93315,204.642235 1340.90235,204.689112 1340.88092,204.740006 L1339.54443,207.892771 C1339.46944,208.069562 1339.52166,208.247692 1339.63549,208.362874 C1339.74932,208.478055 1339.92877,208.530289 1340.10688,208.455287 Z M1346.97282,199.96532 L1346.9755,199.962642 L1348.03613,201.023385 L1348.03345,201.026064 L1347.20316,201.856444 L1346.14254,200.7957 L1346.97282,199.96532 Z M1341.72728,205.211447 L1345.4609,201.477416 L1346.52152,202.538159 L1342.78791,206.272191 L1340.94788,207.051677 L1341.72728,205.211447 Z" id="编辑"></path>
        </g>
    </g>
</svg>