<?xml version="1.0" encoding="UTF-8"?>
<svg width="14px" height="14px" viewBox="0 0 14 14" version="1.1" xmlns="http://www.w3.org/2000/svg" xmlns:xlink="http://www.w3.org/1999/xlink">
    <!-- Generator: Sketch 47.1 (45422) - http://www.bohemiancoding.com/sketch -->
    <title>电子表格</title>
    <desc>Created with Sketch.</desc>
    <defs>
        <rect id="path-1" x="0" y="0" width="14" height="14"></rect>
    </defs>
    <g id="切图" stroke="none" stroke-width="1" fill="none" fill-rule="evenodd" opacity="0.649999976">
        <g id="A01-切图" transform="translate(-412.000000, -63.000000)">
            <g id="电子表格" transform="translate(412.000000, 63.000000)">
                <mask id="mask-2" fill="white">
                    <use xlink:href="#path-1"></use>
                </mask>
                <g id="Mask"></g>
                <path d="M12.5714286,1.42857143 L1.42857143,1.42857143 C0.917857143,1.42857143 0.5,1.84642857 0.5,2.35714286 L0.5,11.6428571 C0.5,12.1535714 0.917857143,12.5714286 1.42857143,12.5714286 L12.5714286,12.5714286 C13.0821429,12.5714286 13.5,12.1535714 13.5,11.6428571 L13.5,2.35714286 C13.5,1.84642857 13.0821429,1.42857143 12.5714286,1.42857143 Z M4.67857143,11.6428571 L1.42857143,11.6428571 L1.42857143,9.54685902 L4.67857143,9.54685902 L4.67857143,11.6428571 Z M4.67857143,8.70845977 L1.42857143,8.70845977 L1.42857143,6.61246164 L4.67857143,6.61246164 L4.67857143,8.70845977 Z M4.67857143,5.77406239 L1.42857143,5.77406239 L1.42857143,3.67806427 L4.67857143,3.67806427 L4.67857143,5.77406239 Z M8.39285714,11.6428571 L5.60714286,11.6428571 L5.60714286,9.54685902 L8.39285714,9.54685902 L8.39285714,11.6428571 Z M8.39285714,8.70845977 L5.60714286,8.70845977 L5.60714286,6.61246164 L8.39285714,6.61246164 L8.39285714,8.70845977 Z M8.39285714,5.77406239 L5.60714286,5.77406239 L5.60714286,3.67806427 L8.39285714,3.67806427 L8.39285714,5.77406239 Z M12.5714286,11.6428571 L9.32142857,11.6428571 L9.32142857,9.54685902 L12.5714286,9.54685902 L12.5714286,11.6428571 Z M12.5714286,8.70845977 L9.32142857,8.70845977 L9.32142857,6.61246164 L12.5714286,6.61246164 L12.5714286,8.70845977 Z M12.5714286,5.77406239 L9.32142857,5.77406239 L9.32142857,3.67806427 L12.5714286,3.67806427 L12.5714286,5.77406239 Z" id="Shape" fill="#000000" fill-rule="nonzero" mask="url(#mask-2)"></path>
            </g>
        </g>
    </g>
</svg>