<?xml version="1.0" encoding="UTF-8"?>
<svg width="12px" height="12px" viewBox="0 0 12 12" version="1.1" xmlns="http://www.w3.org/2000/svg" xmlns:xlink="http://www.w3.org/1999/xlink">
    <!-- Generator: Sketch 50.2 (55047) - http://www.bohemiancoding.com/sketch -->
    <title>解释说明@1x</title>
    <desc>Created with Sketch.</desc>
    <defs></defs>
    <g id="Page-6" stroke="none" stroke-width="1" fill="none" fill-rule="evenodd">
        <g id="标签样式—（单个属性状态）" transform="translate(-593.000000, -76.000000)" fill="#999999">
            <g id="解释说明" transform="translate(593.000000, 76.000000)">
                <path d="M5.99704832,0.604666667 C3.02099561,0.604666667 0.599701318,3.0224386 0.599701318,5.99412281 C0.599701318,8.96582456 3.02099561,11.3836491 5.99704832,11.3836491 C8.97310102,11.3836491 11.3944656,8.96582456 11.3944656,5.99412281 C11.3944656,3.0224386 8.97310102,0.604666667 5.99704832,0.604666667 M5.99704832,11.9824737 C2.69026647,11.9824737 0,9.29607018 0,5.99412281 C0,2.69217544 2.69026647,0.00584210526 5.99704832,0.00584210526 C9.30383016,0.00584210526 11.9941669,2.69217544 11.9941669,5.99412281 C11.9941669,9.29607018 9.30383016,11.9824737 5.99704832,11.9824737" id="Fill-1"></path>
                <path d="M5.36050366,2.61254386 C5.36050366,2.9432807 5.62898389,3.21136842 5.96018741,3.21136842 C6.29140849,3.21136842 6.55988873,2.9432807 6.55988873,2.61254386 C6.55988873,2.28182456 6.29140849,2.01373684 5.96018741,2.01373684 C5.62898389,2.01373684 5.36050366,2.28182456 5.36050366,2.61254386 Z M5.99704832,9.88654386 C5.74866764,9.88654386 5.54730307,9.68547368 5.54730307,9.43745614 L5.54730307,4.34733333 C5.54730307,4.09931579 5.74866764,3.89826316 5.99704832,3.89826316 C6.24549927,3.89826316 6.44686384,4.09931579 6.44686384,4.34733333 L6.44686384,9.43745614 C6.44686384,9.68547368 6.24549927,9.88654386 5.99704832,9.88654386 Z" id="Fill-2"></path>
            </g>
        </g>
    </g>
</svg>