<?xml version="1.0" encoding="UTF-8"?>
<svg width="252px" height="91px" viewBox="0 0 252 91" version="1.1" xmlns="http://www.w3.org/2000/svg" xmlns:xlink="http://www.w3.org/1999/xlink">
    <!-- Generator: Sketch 49.2 (51160) - http://www.bohemiancoding.com/sketch -->
    <title>标签背景</title>
    <desc>Created with Sketch.</desc>
    <defs>
        <linearGradient x1="0%" y1="50%" x2="96.789198%" y2="50%" id="linearGradient-1">
            <stop stop-color="#6492D3" offset="0%"></stop>
            <stop stop-color="#59E1EC" offset="100%"></stop>
        </linearGradient>
        <path d="M2,0 L250,0 C251.104569,-2.02906125e-16 252,0.8954305 252,2 L252,91 L0,91 L0,2 C-1.3527075e-16,0.8954305 0.8954305,2.02906125e-16 2,0 Z" id="path-2"></path>
    </defs>
    <g id="Page-6" stroke="none" stroke-width="1" fill="none" fill-rule="evenodd">
        <g id="在线预览6.18改-1" transform="translate(-28.000000, -259.000000)">
            <g id="横向1-copy-15" transform="translate(28.000000, 259.000000)">
                <g id="标签背景">
                    <mask id="mask-3" fill="white">
                        <use xlink:href="#path-2"></use>
                    </mask>
                    <use id="Rectangle-5" fill="url(#linearGradient-1)" xlink:href="#path-2"></use>
                    <path d="M0.392578125,90.3592577 C8.73877874,82.9517838 17.2198985,79.2480469 25.8359375,79.2480469 C49.4521484,79.2480469 58.5873763,90.3592577 84.9355469,90.3592577 C137.892578,90.3592577 136.404297,82.2304688 162.605469,82.2304688 C185.021484,82.2304688 187.402344,90.3592577 212.972656,90.3592577 C239.021497,90.3592577 251.555352,90.3592577 250.574219,90.3592577 L0.392578125,90.3592577 Z" id="Path-4" fill-opacity="0.15" fill="#FFFFFF" mask="url(#mask-3)"></path>
                    <path d="M0.392578125,90.3574219 C49.2385772,90.3574219 80.2812204,90.3574219 93.5205078,90.3574219 C112.371058,90.3574219 122.914062,90.3574219 138.234375,88.3164062 C149.192887,86.8564821 154.006836,81.4873047 165.023438,81.4873047 C177.128906,81.4873047 181.557544,85.9918399 202.892578,88.3164062 C211.557464,89.2604921 227.451345,89.9408306 250.574219,90.3574219 L0.392578125,90.3574219 Z" id="Path-4" fill-opacity="0.179999992" fill="#FFFFFF" mask="url(#mask-3)" transform="translate(125.483398, 85.922363) scale(-1, 1) translate(-125.483398, -85.922363) "></path>
                    <path d="M0.392578125,90.3574219 C3.59700521,86.485026 9.39908854,84.5488281 17.7988281,84.5488281 C28.8652344,84.5488281 32.0392685,90.3574219 55.9042969,90.3574219 C71.6015625,90.3574219 80.1720903,90.3574219 93.5205078,90.3574219 C106.087541,90.3574219 158.438778,90.3574219 250.574219,90.3574219 L0.392578125,90.3574219 Z" id="Path-4" fill-opacity="0.210000008" fill="#FFFFFF" mask="url(#mask-3)" transform="translate(125.483398, 87.453125) scale(-1, 1) translate(-125.483398, -87.453125) "></path>
                </g>
            </g>
        </g>
    </g>
</svg>