<?xml version="1.0" encoding="UTF-8"?>
<svg width="40px" height="40px" viewBox="0 0 40 40" version="1.1" xmlns="http://www.w3.org/2000/svg" xmlns:xlink="http://www.w3.org/1999/xlink">
    <!-- Generator: Sketch 50.2 (55047) - http://www.bohemiancoding.com/sketch -->
    <title>倒数第二</title>
    <desc>Created with Sketch.</desc>
    <defs>
        <circle id="path-1" cx="16" cy="16" r="16"></circle>
        <filter x="-21.9%" y="-15.6%" width="143.8%" height="143.8%" filterUnits="objectBoundingBox" id="filter-2">
            <feOffset dx="0" dy="2" in="SourceAlpha" result="shadowOffsetOuter1"></feOffset>
            <feGaussianBlur stdDeviation="2" in="shadowOffsetOuter1" result="shadowBlurOuter1"></feGaussianBlur>
            <feColorMatrix values="0 0 0 0 0.0441525334   0 0 0 0 0.136907107   0 0 0 0 0.208652211  0 0 0 0.320227582 0" type="matrix" in="shadowBlurOuter1"></feColorMatrix>
        </filter>
        <polygon id="path-3" points="0 0 20 0 20 20 0 20"></polygon>
    </defs>
    <g id="Page-6" stroke="none" stroke-width="1" fill="none" fill-rule="evenodd">
        <g id="排名（倒数）" transform="translate(-335.000000, -118.000000)">
            <g id="倒数第二" transform="translate(339.000000, 120.000000)">
                <g id="Oval">
                    <use fill="black" fill-opacity="1" filter="url(#filter-2)" xlink:href="#path-1"></use>
                    <use fill="#FFFFFF" fill-rule="evenodd" xlink:href="#path-1"></use>
                </g>
                <g transform="translate(6.000000, 8.000000)">
                    <mask id="mask-4" fill="white">
                        <use xlink:href="#path-3"></use>
                    </mask>
                    <g id="Clip-2"></g>
                    <path d="M15.7135891,11.4216746 L15.7135891,0 L4.48553143,0 C3.2713051,0 2.61415184,0.485424588 2.04276414,2.85539423 C1.47137645,5.22536388 0.0856922765,9.70839411 0,10.6079054 C0.0390354213,11.7188424 0.931109607,12.6104192 2.04276414,12.6495305 C3.2713051,12.7208683 8.15674196,12.6495305 8.15674196,12.6495305 C7.54214171,14.0607847 7.26342197,15.59533 7.34251877,17.1324631 C7.45044023,18.6626382 8.66857499,19.8800937 10.1995061,19.987955 C10.6479005,20.045743 11.0978826,19.8935458 11.4189844,19.575504 C11.7400617,19.25734 11.8962767,18.8089272 11.8422671,18.360319 C11.9137425,17.2182052 11.9565886,12.3210883 15.7135891,11.4216746 Z M19.6419498,11.4216746 L17.4991787,11.4216746 C17.4005154,11.4183299 17.3072994,11.3757029 17.240221,11.3033153 C17.1731426,11.230952 17.1378202,11.1347118 17.1420217,11.0362011 L17.1420217,0.399780095 C17.1350598,0.299072132 17.1690387,0.199902255 17.2362148,0.124560491 C17.3034642,0.0493163843 17.3983169,0.00439452929 17.4991787,0 L19.6419498,0 C19.7428116,0.00439452929 19.8376643,0.0493163843 19.9049381,0.124560491 C19.9721142,0.199902255 20.0060687,0.299072132 19.9991068,0.399780095 L19.9991068,11.0362011 C20.0033083,11.1347118 19.9680104,11.230952 19.900932,11.3033153 C19.8338291,11.3757029 19.7406131,11.4183299 19.6419498,11.4216746 Z" id="Fill-1" fill="#FFD464" mask="url(#mask-4)"></path>
                    <g id="Group-4" mask="url(#mask-4)" fill="#FAAF29">
                        <g transform="translate(0.000000, 6.714286)" id="Combined-Shape">
                            <path d="M1.03822049,1.59872116e-14 L15.7135891,1.59872116e-14 L15.7135891,4.79674643 C11.9565886,5.6867912 11.9137425,10.5328965 11.8422671,11.6631133 C11.8962767,12.1070485 11.7400617,12.5507904 11.4189844,12.8656401 C11.0978826,13.180369 10.6479005,13.3309808 10.1995061,13.2737947 C8.66857499,13.167057 7.45044023,11.9622833 7.34251877,10.4480475 C7.26342197,8.92692622 7.54214171,7.40836585 8.15674196,6.01181217 C8.15674196,6.01181217 3.2713051,6.08240692 2.04276414,6.01181217 C0.931109607,5.97310827 0.0390354213,5.09081877 0,3.99145403 C0.0493675848,3.47864082 0.530195672,1.78886552 1.03822049,6.57627286e-11 Z"></path>
                            <path d="M17.1420217,1.42108547e-14 L19.9991068,1.42108547e-14 L19.9991068,4.41528832 C20.0033083,4.51277287 19.9680104,4.60801056 19.900932,4.67962002 C19.8338291,4.75125365 19.7406131,4.79343655 19.6419498,4.79674643 L17.4991787,4.79674643 C17.4005154,4.79343655 17.3072994,4.75125365 17.240221,4.67962002 C17.1731426,4.60801056 17.1378202,4.51277287 17.1420217,4.41528832 L17.1420217,1.42108547e-14 Z"></path>
                        </g>
                    </g>
                </g>
            </g>
        </g>
    </g>
</svg>