<?xml version="1.0" encoding="UTF-8"?>
<svg width="16px" height="16px" viewBox="0 0 16 16" version="1.1" xmlns="http://www.w3.org/2000/svg" xmlns:xlink="http://www.w3.org/1999/xlink">
    <!-- Generator: Sketch 49.2 (51160) - http://www.bohemiancoding.com/sketch -->
    <title>Group 44 Copy 5</title>
    <desc>Created with Sketch.</desc>
    <defs></defs>
    <g id="可视化高保真定稿" stroke="none" stroke-width="1" fill="none" fill-rule="evenodd">
        <g id="C04查询面板—日期范围" transform="translate(-1339.000000, -193.000000)">
            <g id="Group-44-Copy-5" transform="translate(1339.000000, 193.000000)">
                <rect id="Rectangle-35-Copy-11" x="0" y="0" width="16" height="16"></rect>
                <g id="minus-square" transform="translate(0.984375, 0.984375)">
                    <path d="M12.8984375,0.0078125 L1.1328125,0.0078125 C0.5109375,0.0078125 0.0078125,0.5109375 0.0078125,1.1328125 L0.0078125,12.9 C0.0078125,13.521875 0.5109375,14.025 1.1328125,14.025 L12.9,14.025 C13.521875,14.025 14.025,13.521875 14.025,12.9 L14.025,1.1328125 C14.0234375,0.5109375 13.5203125,0.0078125 12.8984375,0.0078125 Z" id="Path" stroke="#C1C3C3"></path>
                    <path d="M11.0078125,7.03125 C11.0078125,7.3421875 10.75625,7.59375 10.4453125,7.59375 L3.5546875,7.59375 C3.24375,7.59375 2.9921875,7.3421875 2.9921875,7.03125 C2.9921875,6.7203125 3.24375,6.46875 3.5546875,6.46875 L10.4453125,6.46875 C10.75625,6.46875 11.0078125,6.7203125 11.0078125,7.03125 Z" id="Path" fill="#C1C3C3"></path>
                </g>
            </g>
        </g>
    </g>
</svg>