<?xml version="1.0" encoding="UTF-8"?>
<svg width="14px" height="14px" viewBox="0 0 14 14" version="1.1" xmlns="http://www.w3.org/2000/svg" xmlns:xlink="http://www.w3.org/1999/xlink">
    <!-- Generator: Sketch 49.2 (51160) - http://www.bohemiancoding.com/sketch -->
    <title>加</title>
    <desc>Created with Sketch.</desc>
    <defs></defs>
    <g id="可视化高保真定稿" stroke="none" stroke-width="1" fill="none" fill-rule="evenodd">
        <g id="C04查询面板—日期范围" transform="translate(-1337.000000, -150.000000)" stroke="#C1C3C3">
            <path d="M1350.01562,156.548928 L1344.49805,156.548928 L1344.49805,151.011673 C1344.49805,150.741104 1344.28123,150.523438 1344.01367,150.523438 C1343.74611,150.523438 1343.5293,150.741104 1343.5293,151.011673 L1343.5293,156.548928 L1337.98438,156.548928 C1337.71682,156.548928 1337.5,156.766594 1337.5,157.037163 C1337.5,157.307732 1337.71682,157.525398 1337.98438,157.525398 L1343.5293,157.525398 L1343.5293,163.035202 C1343.5293,163.305771 1343.74611,163.523438 1344.01367,163.523438 C1344.28123,163.523438 1344.49805,163.305771 1344.49805,163.035202 L1344.49805,157.525398 L1350.01562,157.525398 C1350.28318,157.525398 1350.5,157.307732 1350.5,157.037163 C1350.5,156.766594 1350.28318,156.548928 1350.01562,156.548928 Z" id="加"></path>
        </g>
    </g>
</svg>