<?xml version="1.0" encoding="UTF-8"?>
<svg width="20px" height="14px" viewBox="0 0 20 14" version="1.1" xmlns="http://www.w3.org/2000/svg" xmlns:xlink="http://www.w3.org/1999/xlink">
    <!-- Generator: Sketch 49.2 (51160) - http://www.bohemiancoding.com/sketch -->
    <title>眼睛</title>
    <desc>Created with Sketch.</desc>
    <defs>
        <polygon id="path-1" points="0 0 20 0 20 14 0 14"></polygon>
    </defs>
    <g id="Page-6" stroke="none" stroke-width="1" fill="none" fill-rule="evenodd">
        <g id="B06—标准表格-添加分组／跳转详情" transform="translate(-1032.000000, -208.000000)">
            <g id="眼睛" transform="translate(1032.000000, 208.000000)">
                <mask id="mask-2" fill="white">
                    <use xlink:href="#path-1"></use>
                </mask>
                <g id="Clip-2"></g>
                <path d="M10,0 C5.45448912,0 1.57274952,2.90270491 0,7 C1.57274952,11.097324 5.45448912,14 10,14 C14.5500173,14 18.4272505,11.097324 20,7 C18.4272505,2.90270491 14.5500173,0 10,0 Z M10,11.6665992 C7.49098007,11.6665992 5.45448912,9.57603748 5.45448912,7 C5.45448912,4.42396252 7.49086741,2.33331406 10,2.33331406 C12.5091326,2.33331406 14.5455109,4.42396252 14.5455109,7 C14.5455109,9.57603748 12.5091326,11.6665992 10,11.6665992 Z M10,4.19997687 C8.4954668,4.19997687 7.27269911,5.4553491 7.27269911,7 C7.27269911,8.5446509 8.4954668,9.80002313 10,9.80002313 C11.5045332,9.80002313 12.7273009,8.5446509 12.7273009,7 C12.7273009,5.4553491 11.5045332,4.19997687 10,4.19997687 Z" id="Fill-1" fill="#51A6FF" mask="url(#mask-2)"></path>
            </g>
        </g>
    </g>
</svg>