<?xml version="1.0" encoding="UTF-8"?>
<svg width="12px" height="12px" viewBox="0 0 12 12" version="1.1" xmlns="http://www.w3.org/2000/svg" xmlns:xlink="http://www.w3.org/1999/xlink">
    <!-- Generator: Sketch 50.2 (55047) - http://www.bohemiancoding.com/sketch -->
    <title>个人企业积分排行@1x</title>
    <desc>Created with Sketch.</desc>
    <defs></defs>
    <g id="Page-6" stroke="none" stroke-width="1" fill="none" fill-rule="evenodd">
        <g id="排名（正数）" transform="translate(-263.000000, -148.000000)" fill="#FFFFFF">
            <g id="横向1-copy-17" transform="translate(249.000000, 136.000000)">
                <path d="M18.1825033,23.2340248 C18.1825033,23.6569597 17.8295996,24 17.3941384,24 C16.9587652,24 16.6058616,23.6569597 16.6058616,23.2340248 L16.6058616,16.2553108 C16.6058616,15.8324614 16.9587652,15.4893997 17.3941384,15.4893997 C17.8295996,15.4893997 18.1825033,15.8324614 18.1825033,16.2553108 L18.1825033,23.2340248 Z M15.5766197,23.2340248 C15.5766197,23.6569597 15.223738,24 14.7882769,24 C14.3529037,24 14,23.6569597 14,23.2340248 L14,19.4042344 C14,18.981385 14.3529037,18.6383233 14.7882769,18.6383233 C15.223738,18.6383233 15.5766197,18.981385 15.5766197,19.4042344 L15.5766197,23.2340248 Z M20.7883648,23.2340248 C20.7883648,23.6569597 20.4354612,24 20,24 C19.5646268,24 19.2116352,23.6569597 19.2116352,23.2340248 L19.2116352,12.7659111 C19.2116352,12.3430617 19.5646268,12 20,12 C20.4354612,12 20.7883648,12.3430617 20.7883648,12.7659111 L20.7883648,23.2340248 Z M23.3942264,23.2340248 C23.3942264,23.6569597 23.0412348,24 22.6058616,24 C22.1704884,24 21.8175187,23.6569597 21.8175187,23.2340248 L21.8175187,18.3829983 C21.8175187,17.9601489 22.1704884,17.6170017 22.6058616,17.6170017 C23.0412348,17.6170017 23.3942264,17.9601489 23.3942264,18.3829983 L23.3942264,23.2340248 Z M26,23.2340248 C26,23.6569597 25.6470963,24 25.2117231,24 C24.776284,24 24.4233803,23.6569597 24.4233803,23.2340248 L24.4233803,20.2553607 C24.4233803,19.8324258 24.776284,19.4893641 25.2117231,19.4893641 C25.6470963,19.4893641 26,19.8324258 26,20.2553607 L26,23.2340248 Z" id="个人企业积分排行"></path>
            </g>
        </g>
    </g>
</svg>