<?xml version="1.0" encoding="UTF-8"?>
<svg width="14px" height="14px" viewBox="0 0 14 14" version="1.1" xmlns="http://www.w3.org/2000/svg" xmlns:xlink="http://www.w3.org/1999/xlink">
    <!-- Generator: Sketch 49.2 (51160) - http://www.bohemiancoding.com/sketch -->
    <title>Group</title>
    <desc>Created with Sketch.</desc>
    <defs></defs>
    <g id="可视化高保真定稿" stroke="none" stroke-width="1" fill="none" fill-rule="evenodd">
        <g id="A06添加元素（tab）" transform="translate(-1300.000000, -18.000000)" fill-rule="nonzero">
            <g id="Group" transform="translate(1300.000000, 18.000000)">
                <path d="M11.9997343,0 L2.00024941,0 C0.895550047,0 0,0.895550047 0,2.00024941 L0,11.9997506 C0,13.10445 0.895550047,14 2.00024941,14 L11.9997506,14 C13.10445,14 14,13.10445 14,11.9997506 L14,2.00024941 C13.9999837,0.895550047 13.10445,2.31876316e-16 11.9997343,2.31876316e-16 L11.9997343,0 Z M9.96934764,1.03306842 L9.96934764,4.96774509 L4.03628167,4.96774509 L4.03628167,1.03306842 L9.96934764,1.03306842 Z M13.0008054,12.0024592 C13.0012459,12.5533975 12.5549802,13.0003648 12.0040419,13.0008054 L2.00256641,13.0008054 C1.73514963,13.0008054 1.48264645,12.8980582 1.29353422,12.7089459 C1.10442198,12.5198337 0.999194647,12.2698596 0.999194647,12.0024592 L0.999194647,2.00121211 C1.00018997,1.44769577 1.44905007,0.9994394 2.00256641,0.999194647 L3.00322957,0.999194647 L3.00322957,5.00161886 C3.00241373,5.55265504 3.44845101,5.99999767 3.99948718,6.00081351 L10.0022587,6.00081351 C10.5546329,6.00081351 11.002465,5.55394407 11.002465,5.00161886 L11.002465,0.999194647 L12.0011538,0.999194647 C12.553838,0.999782054 13.0013928,1.44829949 13.0008054,2.00098367 L13.0008054,12.0024592 Z" id="Shape" fill="#FFFFFF"></path>
                <path d="M7,4.30769231 C7.29738195,4.30769231 7.53846154,4.06270449 7.53846154,3.76050158 L7.53846154,2.70103688 C7.53846154,2.39883397 7.29738195,2.15384615 7,2.15384615 C6.70261805,2.15384615 6.46153846,2.39883397 6.46153846,2.70103688 L6.46153846,3.76050158 C6.46153846,4.06270449 6.70261805,4.30769231 7,4.30769231 Z" id="Shape" fill="#51A6FF"></path>
            </g>
        </g>
    </g>
</svg>