<?xml version="1.0" encoding="UTF-8"?>
<svg width="209px" height="217px" viewBox="0 0 209 217" version="1.1" xmlns="http://www.w3.org/2000/svg" xmlns:xlink="http://www.w3.org/1999/xlink">
    <!-- Generator: Sketch 49.2 (51160) - http://www.bohemiancoding.com/sketch -->
    <title>Group 4</title>
    <desc>Created with Sketch.</desc>
    <defs>
        <linearGradient x1="92.1595247%" y1="91.7151989%" x2="8.02448927%" y2="20.5067605%" id="linearGradient-1">
            <stop stop-color="#7AD6FA" offset="0%"></stop>
            <stop stop-color="#9BC4FA" offset="100%"></stop>
        </linearGradient>
        <rect id="path-2" x="64.4913643" y="53" width="15" height="5" rx="2.5"></rect>
    </defs>
    <g id="可视化高保真定稿" stroke="none" stroke-width="1" fill="none" fill-rule="evenodd">
        <g id="无数据状态" transform="translate(-477.000000, -145.000000)">
            <g id="Group-4" transform="translate(476.000000, 146.000000)">
                <path d="M53.1203369,81.5969472 L56.7623086,83.6996406 C58.4363328,84.6661389 60.5768992,84.0925758 61.5433975,82.4185517 C62.5098958,80.7445275 61.9363328,78.6039611 60.2623086,77.6374627 L57.207708,75.8738882 C57.2149753,75.8648943 57.2222453,75.8559026 57.2295178,75.846913 L45.1385235,68.8661742 C43.4644993,67.8996759 42.8909362,65.7591095 43.8574346,64.0850853 C44.8239329,62.4110611 46.9644993,61.8374981 48.6385235,62.8039964 L62.0667375,70.5567794 C72.6467052,60.3060985 87.0488782,54 102.919241,54 C135.400544,54 161.731842,80.4151998 161.731842,113 C161.731842,116.708417 161.390791,120.336924 160.738438,123.855677 L172.501295,130.646966 C174.892759,132.027677 175.712134,135.085629 174.331422,137.477093 C173.12616,139.564668 170.642835,140.454307 168.440435,139.728281 L155.764773,132.409984 C153.971176,131.37445 151.677712,131.988982 150.642178,133.782579 C149.606644,135.576177 150.221176,137.869641 152.014773,138.905174 L165.282049,146.56504 C167.543584,148.708618 168.164834,152.185475 166.584188,155.037036 C164.709917,158.41831 160.449457,159.639978 157.068183,157.765707 L146.925121,152.143316 C142.789309,156.819135 137.924293,160.831162 132.508903,164 L73.3295792,164 C56.7407219,154.292961 45.3164074,136.673697 44.1970281,116.298981 L32.2753719,109.690699 C28.894098,107.816428 27.6724306,103.555968 29.5467013,100.174694 C31.420972,96.79342 35.6814327,95.5717526 39.0627066,97.4460233 L45.3393833,100.925242 C45.3443828,100.901126 45.349398,100.87701 45.3544279,100.8529 L46.6130102,101.550544 C49.0282058,102.889309 52.0713921,102.016689 53.4101569,99.6014934 L53.6525617,99.1641836 C54.9913265,96.748988 54.1187069,93.7058017 51.7035112,92.3670369 L48.4975888,90.5899651 C48.5013375,90.5808132 48.5050884,90.5716624 48.5088416,90.5625128 L44.4415319,88.2142504 C42.0500688,86.8335385 41.230693,83.7755865 42.6114049,81.3841234 C43.9921167,78.9926603 47.0500688,78.1732845 49.4415319,79.5539964 L53.0830407,81.6564225 C53.0954613,81.6365894 53.1078934,81.6167644 53.1203369,81.5969472 Z M31.4987045,69.5134991 L37.5141201,72.9865009 C39.9055832,74.3672128 40.724959,77.4251648 39.3442471,79.8166279 C37.9635353,82.208091 34.9055832,83.0274668 32.5141201,81.6467549 L26.4987045,78.1737531 C24.1072414,76.7930413 23.2878656,73.7350892 24.6685775,71.3436261 C26.0492894,68.952163 29.1072414,68.1327872 31.4987045,69.5134991 Z" id="Combined-Shape" fill="url(#linearGradient-1)"></path>
                <text id="当前查询无数据，请修改查询条件" font-family="PingFangSC-Regular, PingFang SC" font-size="14" font-weight="normal" fill="#0BACE0">
                    <tspan x="0" y="213">当前查询无数据，请修改查询条件</tspan>
                </text>
                <circle id="Oval-3" stroke="#90CBFD" stroke-width="2" fill="#FFFFFF" cx="87.5" cy="5.5" r="5.5"></circle>
                <circle id="Oval-3-Copy-4" stroke="#9BDCFC" stroke-width="2" fill="#FFFFFF" cx="31.5" cy="133.5" r="4.5"></circle>
                <rect id="Rectangle-14" fill="#B0D3FD" x="72" y="45" width="8" height="2" rx="1"></rect>
                <rect id="Rectangle-14-Copy" fill="#B0D3FD" x="136" y="38" width="7" height="1" rx="0.5"></rect>
                <rect id="Rectangle-14-Copy-3" fill="#C7EAF9" x="123" y="71" width="7" height="1" rx="0.5"></rect>
                <rect id="Rectangle-14" fill="#B0D3FD" transform="translate(76.000000, 46.000000) rotate(90.000000) translate(-76.000000, -46.000000) " x="72" y="45" width="8" height="2" rx="1"></rect>
                <path d="M140,35.65625 L140,41.34375 C140,41.7061869 139.776142,42 139.5,42 C139.223858,42 139,41.7061869 139,41.34375 L139,35.65625 C139,35.2938131 139.223858,35 139.5,35 C139.776142,35 140,35.2938131 140,35.65625 Z" id="Rectangle-14-Copy-2" fill="#B0D3FD"></path>
                <path d="M127,68.65625 L127,74.34375 C127,74.7061869 126.776142,75 126.5,75 C126.223858,75 126,74.7061869 126,74.34375 L126,68.65625 C126,68.2938131 126.223858,68 126.5,68 C126.776142,68 127,68.2938131 127,68.65625 Z" id="Rectangle-14-Copy-4" fill="#C7EAF9"></path>
                <circle id="Oval-3-Copy" stroke="#B8E1FD" stroke-width="2" fill="#FFFFFF" cx="134" cy="14" r="4"></circle>
                <circle id="Oval-3-Copy-2" stroke="#D8EAFC" stroke-width="1.5" fill="#FFFFFF" cx="52" cy="28" r="3"></circle>
                <circle id="Oval-3-Copy-5" stroke="#A7E4F8" stroke-width="1.5" cx="58" cy="124" r="3"></circle>
                <circle id="Oval-3-Copy-5" stroke="#D8F5FE" stroke-width="1.5" cx="144" cy="84" r="3"></circle>
                <circle id="Oval-3-Copy-3" stroke="#B7E2FD" stroke-width="1.5" fill="#FFFFFF" cx="109" cy="34" r="3"></circle>
                <rect id="Rectangle-13" fill="#49B4FA" x="59" y="163" width="85" height="2" rx="1"></rect>
                <rect id="Rectangle-13-Copy-3" fill="#49B4FA" x="62" y="171" width="47" height="2" rx="1"></rect>
                <rect id="Rectangle-13-Copy-4" fill="#49B4FA" x="53" y="179" width="54" height="2" rx="1"></rect>
                <rect id="Rectangle-13-Copy-5" fill="#49B4FA" x="115" y="180" width="40" height="2" rx="1"></rect>
                <rect id="Rectangle-13-Copy-3" fill="#49B4FA" x="112" y="171" width="6" height="2" rx="1"></rect>
                <rect id="Rectangle-13-Copy-3" fill="#49B4FA" x="122" y="171" width="14" height="2" rx="1"></rect>
                <rect id="Rectangle-13-Copy" fill="#49B4FA" x="37" y="163" width="15" height="2" rx="1"></rect>
                <rect id="Rectangle-13-Copy-2" fill="#49B4FA" x="148" y="163" width="8" height="2" rx="1"></rect>
                <rect id="Rectangle-13-Copy-2" fill="#49B4FA" x="161" y="163" width="5" height="2" rx="1"></rect>
                <g id="Group-3" transform="translate(69.000000, 82.000000)">
                    <rect id="Rectangle-15" fill="#F1F9FF" x="0" y="0" width="68" height="78" rx="6"></rect>
                    <path d="M6,1 L62,1 C65.3137085,1 68,3.6862915 68,7 L68,14 L0,14 L0,7 C-4.05812251e-16,3.6862915 2.6862915,1 6,1 Z" id="Rectangle-15" fill="#B5E8FD"></path>
                    <path d="M2,14 L67,14" id="Line" stroke="#00B3F5" stroke-width="1.5" stroke-linecap="square"></path>
                    <rect id="Rectangle-15" stroke="#49B4FA" stroke-width="1.5" x="0.75" y="0.75" width="66.5" height="76.5" rx="6"></rect>
                    <rect id="Rectangle-20" fill="#F1F9FF" x="0" y="55" width="6" height="9"></rect>
                    <rect id="Rectangle-20-Copy-5" fill="#F1F9FF" x="64" y="26" width="4" height="32"></rect>
                    <path d="M67,31.4794922 C70.1811523,37.05814 70.5009766,39.1655856 70.5009766,40.5064188 C70.5009766,41.3989901 70.2792647,42.6158906 69.835841,44.1571204 L69.8358396,44.15712 C69.4093686,45.6394267 68.8039843,47.0642869 68.0330529,48.4002418 L67,50.1904297 L67,31.4794922 Z" id="Rectangle-20-Copy-5" fill="#F1F9FF"></path>
                    <rect id="Rectangle-20-Copy" fill="#B5E8FD" x="34" y="0" width="6" height="5"></rect>
                    <rect id="Rectangle-20-Copy-3" fill="#F1F9FF" x="0" y="28" width="6" height="5"></rect>
                    <rect id="Rectangle-20-Copy-4" fill="#F1F9FF" x="0" y="21" width="6" height="3"></rect>
                    <rect id="Rectangle-16" fill="#D1E9FE" x="8" y="21" width="15" height="15" rx="3"></rect>
                    <rect id="Rectangle-16-Copy" fill="#D1E9FE" x="8" y="45" width="15" height="15" rx="3"></rect>
                    <path d="M11,68 L19,68 C20.6568542,68 22,69.3431458 22,71 L22,76 L8,76 L8,71 C8,69.3431458 9.34314575,68 11,68 Z" id="Rectangle-16-Copy-2" fill="#D1E9FE"></path>
                    <rect id="Rectangle-18" fill="#C4EBFC" x="29" y="22" width="30" height="3" rx="1.5"></rect>
                    <rect id="Rectangle-18" fill="#C4EBFC" x="29" y="33" width="33" height="3" rx="1.5"></rect>
                    <rect id="Rectangle-18-Copy" fill="#C4EBFC" x="29" y="45" width="33" height="3" rx="1.5"></rect>
                    <rect id="Rectangle-18" fill="#C4EBFC" x="43" y="32" width="19" height="5" rx="1"></rect>
                    <rect id="Rectangle-18-Copy" fill="#C4EBFC" x="43" y="44" width="19" height="5" rx="1"></rect>
                    <rect id="Rectangle-18-Copy-2" fill="#C4EBFC" x="29" y="57" width="30" height="3" rx="1.5"></rect>
                    <rect id="Rectangle-18-Copy-3" fill="#C4EBFC" x="29" y="69" width="30" height="3" rx="1.5"></rect>
                    <circle id="Oval-4" stroke="#49B4FA" stroke-width="1.5" cx="56.5" cy="40.6443835" r="14.5"></circle>
                    <g id="Rectangle-19" transform="translate(71.991364, 55.500000) rotate(44.000000) translate(-71.991364, -55.500000) ">
                        <use fill="#A4D3FC" fill-rule="evenodd" xlink:href="#path-2"></use>
                        <rect stroke="#49B4FA" stroke-width="1" x="64.9913643" y="53.5" width="14" height="4" rx="2"></rect>
                    </g>
                </g>
            </g>
        </g>
    </g>
</svg>