<?xml version="1.0" encoding="UTF-8"?>
<svg width="40px" height="40px" viewBox="0 0 40 40" version="1.1" xmlns="http://www.w3.org/2000/svg" xmlns:xlink="http://www.w3.org/1999/xlink">
    <!-- Generator: Sketch 50.2 (55047) - http://www.bohemiancoding.com/sketch -->
    <title>正数第二</title>
    <desc>Created with Sketch.</desc>
    <defs>
        <circle id="path-1" cx="16" cy="16" r="16"></circle>
        <filter x="-21.9%" y="-15.6%" width="143.8%" height="143.8%" filterUnits="objectBoundingBox" id="filter-2">
            <feOffset dx="0" dy="2" in="SourceAlpha" result="shadowOffsetOuter1"></feOffset>
            <feGaussianBlur stdDeviation="2" in="shadowOffsetOuter1" result="shadowBlurOuter1"></feGaussianBlur>
            <feColorMatrix values="0 0 0 0 0.0441525334   0 0 0 0 0.136907107   0 0 0 0 0.208652211  0 0 0 0.320227582 0" type="matrix" in="shadowBlurOuter1"></feColorMatrix>
        </filter>
        <polygon id="path-3" points="0.00154340836 0.0211577767 23.9845145 0.0211577767 23.9845145 20.9740619 0.00154340836 20.9740619"></polygon>
    </defs>
    <g id="Page-6" stroke="none" stroke-width="1" fill="none" fill-rule="evenodd">
        <g id="排名（正数）" transform="translate(-335.000000, -118.000000)">
            <g id="正数第二" transform="translate(339.000000, 120.000000)">
                <g id="Oval">
                    <use fill="black" fill-opacity="1" filter="url(#filter-2)" xlink:href="#path-1"></use>
                    <use fill="#FFFFFF" fill-rule="evenodd" xlink:href="#path-1"></use>
                </g>
                <g transform="translate(4.000000, 4.000000)">
                    <g id="Group-3">
                        <mask id="mask-4" fill="white">
                            <use xlink:href="#path-3"></use>
                        </mask>
                        <g id="Clip-2"></g>
                        <path d="M0,6.03157426 L0.0766559486,5.79927475 C0.306469453,5.02505569 1.14942765,4.56048267 1.99236013,4.79278218 C2.37551125,4.9476052 2.68198071,5.17987871 2.83521543,5.56700124 C3.14178778,6.10894678 3.06510611,6.80579332 2.68198071,7.27026238 C2.60529904,7.27026238 2.60529904,7.34773886 2.52874598,7.4250854 C3.67814791,8.12195792 4.75089389,8.8187005 5.82374277,9.43809653 C6.20689389,9.67039604 6.66659807,9.98004208 7.0497492,10.2123156 C7.20298392,10.3671386 7.4328746,10.2897921 7.50955627,10.1348651 L7.58610932,10.0574926 C8.8888746,7.7348354 10.1148553,5.41217822 11.4175949,3.01204455 C10.8811318,2.77977104 10.4979807,2.2378255 10.4979807,1.61842946 C10.4979807,1.1539604 10.6513183,0.766863861 10.9577878,0.457113861 C11.5708296,-0.162204208 12.4903408,-0.0848316832 13.1034084,0.457113861 L13.1799614,0.534564356 C13.7930032,1.30878342 13.5631125,2.2378255 12.5670225,2.93469802 C12.873492,3.5539901 13.1799614,4.17338614 13.5631125,4.71530569 C14.4827267,6.41867079 15.4022379,8.12195792 16.3217492,9.74774257 C16.5516399,10.1348651 16.7048746,10.2123156 17.0113441,9.98004208 C18.4673441,9.1284505 19.8466624,8.19930446 21.3025595,7.34773886 L21.5324502,7.19291584 C21.2258778,6.96061634 21.0726431,6.5735198 20.99609,6.18639728 C20.9194084,5.33470173 21.6090289,4.63795916 22.3753055,4.56048267 C23.0650032,4.48313614 23.678045,4.9476052 23.9078585,5.64445173 C23.9078585,5.87664728 23.9845145,5.95409777 23.9845145,6.03157426 L23.9845145,6.5735198 C23.7546238,7.34773886 23.2182379,7.81220792 22.3753055,7.81220792 C22.3753055,7.88965842 22.2987267,7.9671349 22.2987267,8.12195792 L19.7700064,16.7931906 C19.6933248,17.1803131 19.54009,17.2577636 19.1569646,17.2577636 L4.82757556,17.2577636 C4.44442444,17.2577636 4.29118971,17.1803131 4.21453376,16.7931906 C3.52491318,14.4705334 2.83521543,12.1478762 2.22217363,9.74774257 C2.06893891,9.1284505 1.83902251,8.50905446 1.68578778,7.81220792 C1.07274598,7.81220792 0.536385852,7.50256188 0.229916399,7.03798886 C0.153234727,6.80579332 0.0766559486,6.72834282 0,6.5735198 L0,6.03157426 Z M12.0305595,18.7287512 L18.7738135,18.7287512 C19.3868553,18.7287512 19.9232412,19.1933243 19.9232412,19.8127203 C19.9232412,20.3546658 19.54009,20.8965854 19.0037299,20.9740619 L5.28727974,20.9740619 C4.82757556,20.9740619 4.36776849,20.6643119 4.21453376,20.1998428 C4.06129904,19.7352698 4.21453376,19.1933243 4.59765916,18.9610507 C4.82757556,18.8062017 5.05746624,18.7287512 5.36393569,18.7287512 C7.58610932,18.6513787 9.80838585,18.7287512 12.0305595,18.7287512 Z" id="Fill-1" fill="#FFD464" mask="url(#mask-4)"></path>
                    </g>
                    <path d="M12,0 C12.2307762,0 12.6923544,0.0780953617 13.0769813,0.468441138 L13.1538293,0.546431673 C13.7692324,1.32709702 13.5384562,2.26387447 12.5385294,2.96654928 C12.8461793,3.59110252 13.1538293,4.21555094 13.5384562,4.76208743 C14.4616126,6.47955644 15.3846657,8.19699923 16.3077188,9.83642528 C16.538495,10.2267711 16.6923199,10.3047616 16.9999699,10.0705541 C18.4615782,9.21187204 19.8462095,8.27509459 21.3077145,7.41633389 L21.5384907,7.26022178 C21.2307374,7.02598811 21.0769125,6.63566854 21.0000646,6.24532276 C20.9230875,5.38653585 21.6153644,4.68399207 22.3845925,4.6058705 C23.0769469,4.52787997 23.6923501,4.99621628 23.9230488,5.69886488 C23.9230488,5.77688163 24,5.85497699 24,5.93309856 L24,6.47955644 C23.7692238,7.26022178 23.2307719,7.72855809 22.3845925,7.72855809 C22.3845925,7.80665346 22.3077188,7.88477502 22.3077188,8.04088713 L19.7692582,16.784318 C19.6922812,17.1746638 19.5384562,17.2527592 19.1538551,17.2527592 L12,17.2527592 L12,0 Z M12,18.7359945 L18.7692281,18.7359945 C19.3846313,18.7359945 19.9230832,19.2044356 19.9230832,19.8289889 C19.9230832,20.3754468 19.5384562,20.9218784 19.0000301,21 L12.0769512,21 L12,18.7359945 Z" id="Fill-4" fill="#FAAF29"></path>
                </g>
            </g>
        </g>
    </g>
</svg>