<?xml version="1.0" encoding="UTF-8"?>
<svg width="14px" height="14px" viewBox="0 0 14 14" version="1.1" xmlns="http://www.w3.org/2000/svg" xmlns:xlink="http://www.w3.org/1999/xlink">
    <!-- Generator: Sketch 47.1 (45422) - http://www.bohemiancoding.com/sketch -->
    <title>主系统管理</title>
    <desc>Created with Sketch.</desc>
    <defs>
        <rect id="path-1" x="0" y="0" width="14" height="14"></rect>
    </defs>
    <g id="切图" stroke="none" stroke-width="1" fill="none" fill-rule="evenodd" opacity="0.649999976">
        <g id="A01-切图" transform="translate(-700.000000, -103.000000)">
            <g id="主系统管理" transform="translate(700.000000, 103.000000)">
                <mask id="mask-2" fill="white">
                    <use xlink:href="#path-1"></use>
                </mask>
                <g id="Mask"></g>
                <g id="系统配置" mask="url(#mask-2)" fill-rule="nonzero" fill="#000000">
                    <g transform="translate(0.500000, 1.286695)" id="Shape">
                        <path d="M8.78569608,6.57193083 C8.32315721,6.57253036 7.94834484,6.94734273 7.94774531,7.40988159 C7.94834485,7.87242046 8.32315721,8.24723282 8.78569608,8.24783235 C9.24819075,8.24723251 9.62292512,7.87237644 9.62337478,7.40988159 C9.62292512,6.94738674 9.24819076,6.57253067 8.78569608,6.57193083 L8.78569608,6.57193083 Z M8.78569608,9.05857691 C7.87558185,9.05752745 7.13805022,8.31999582 7.13700075,7.40988159 C7.13700075,6.50092267 7.87673715,5.76118627 8.78569608,5.76118627 C9.69438294,5.76118627 10.4343914,6.50092267 10.4343914,7.40988159 C10.4343914,8.31911259 9.69438294,9.05857692 8.78569608,9.05857691 L8.78569608,9.05857691 Z M9.78389131,10.1979723 C9.78770018,10.2006929 9.79858265,10.2045018 9.8097372,10.2045018 L9.81109751,10.2045018 L10.6087831,9.76376145 C10.5897388,9.71887124 10.5015907,9.50176581 10.5015907,9.27568235 C10.5020603,8.60086463 11.0299899,8.04414322 11.7038324,8.00787373 C11.7133546,7.95509372 11.7658625,7.65609764 11.7658625,7.43164654 C11.7658625,7.20719544 11.7133546,6.90847144 11.7038324,6.85541936 C11.0301996,6.81916142 10.5023491,6.26276236 10.5015907,5.58815487 C10.5015907,5.36098315 10.5900108,5.14387773 10.6087831,5.09925957 L9.82415649,4.66341635 L9.82089173,4.66314429 C9.81027816,4.6631266 9.79985252,4.66594435 9.79069287,4.67130615 C9.70112683,4.76068462 9.6040019,4.84215305 9.50040278,4.91480158 C9.25826766,5.08484029 9.03000769,5.17108393 8.82024795,5.17108393 C8.60912788,5.17108393 8.37841937,5.08320792 8.13519598,4.90990446 C8.0307496,4.83578234 7.93306172,4.75257012 7.84327353,4.66123986 C7.83392427,4.65613313 7.82345538,4.65342244 7.81280259,4.65335006 L7.81008197,4.65335006 L6.99743297,5.10007576 C7.0164773,5.14523804 7.10435331,5.3620714 7.10435332,5.58815487 C7.10358705,6.26286194 6.5755796,6.81930056 5.90183956,6.85541936 C5.89231739,6.90819938 5.84035356,7.20719545 5.84035356,7.43164654 C5.84035356,7.65609763 5.8923174,7.9550937 5.90211162,8.00814579 C6.57595648,8.04427036 7.10400351,8.60087016 7.10462538,9.27568235 C7.10462538,9.502582 7.01566112,9.72050361 6.99661679,9.76430558 L7.76628001,10.1944355 L7.76791237,10.1944355 C7.77933897,10.1944355 7.78967733,10.1903546 7.79375826,10.187906 C7.88432308,10.093302 7.98300575,10.0068181 8.08867339,9.92944717 C8.3351615,9.74879804 8.56940683,9.65684111 8.78515195,9.65684111 C9.00334562,9.65684111 9.23949538,9.75043042 9.48761587,9.93488841 C9.65411777,10.0584045 9.76947204,10.1824648 9.78389131,10.1979723 L9.78389131,10.1979723 Z M10.0369089,11.4075597 C9.88319393,11.4072876 9.73410398,11.3438972 9.63779405,11.237793 C9.50638813,11.0938723 9.09094957,10.719515 8.75032802,10.719515 C8.4124271,10.719515 7.99018698,11.0963208 7.86884735,11.2277267 C7.77280949,11.3324706 7.62480779,11.3947728 7.47272518,11.3947728 C7.4003567,11.3947728 7.33206916,11.3808976 7.26976697,11.3534193 L7.2588845,11.3487943 L6.22450502,10.7703906 L6.21416667,10.7627729 C6.02466489,10.6268517 5.95537476,10.3773166 6.04766475,10.1631484 C6.04820888,10.161516 6.14288643,9.94332233 6.14288644,9.74362887 C6.14213694,9.1384093 5.65169642,8.64796877 5.04647684,8.64721927 L5.00294693,8.64721927 C4.82991553,8.64721927 4.68871539,8.49323222 4.64382517,8.25545008 C4.64001631,8.23640575 4.55540504,7.78478294 4.55540504,7.42919799 C4.55540504,7.07306891 4.63974424,6.62171816 4.64355311,6.60212971 C4.68953158,6.3613549 4.83318028,6.20655166 5.00974847,6.21063258 L5.04620478,6.21063258 C5.65168069,6.20988278 6.14228683,5.71915493 6.14288644,5.11367885 C6.14288644,4.91452952 6.04820889,4.69633584 6.04739269,4.69388729 C5.95533591,4.47960229 6.02538382,4.23012746 6.21552697,4.09507897 L6.22613739,4.0877333 L7.31792194,3.48783673 L7.32934854,3.48321168 C7.39056247,3.45682166 7.45776177,3.44376269 7.52904199,3.4437627 C7.68085256,3.4437627 7.8291263,3.50443251 7.92625242,3.60699986 C8.05548184,3.74221465 8.4638468,4.09399073 8.79413,4.09399072 C9.12169257,4.09399072 9.52788104,3.74901618 9.65656633,3.61624996 C9.75314832,3.51585911 9.90033383,3.45627754 10.050512,3.45627755 C10.1231526,3.45627755 10.1917122,3.46988065 10.2545585,3.49708684 L10.2654409,3.50171189 L11.3196809,4.0877333 L11.3302914,4.09507897 C11.5188303,4.22621283 11.5906546,4.4843996 11.4970653,4.69470348 C11.4965212,4.69633586 11.4018436,4.91452952 11.4018436,5.11367885 C11.4025928,5.71894264 11.8929897,6.20946118 12.4982532,6.21036051 L12.5349816,6.21036051 C12.7110057,6.20655165 12.8554706,6.36108283 12.901177,6.60212971 C12.9047138,6.62117404 12.989325,7.07306891 12.989325,7.42865386 C12.989325,7.78451087 12.9047138,8.23667781 12.9006328,8.25572214 C12.8554706,8.4962249 12.7110057,8.65102814 12.5349816,8.64694721 L12.4982532,8.64694721 C11.8929897,8.64784655 11.4025928,9.13836509 11.4018436,9.74362887 C11.4018436,9.94277821 11.4965212,10.161516 11.4973374,10.1634204 C11.5894735,10.3777498 11.5196896,10.6273179 11.3297472,10.7627729 L11.3194089,10.7703906 L10.2466687,11.3629415 L10.2357862,11.3675666 C10.1728314,11.3943597 10.1050548,11.4079706 10.0366369,11.4075597 L10.0369089,11.4075597 Z M12.514849,3.53680787 C12.5148769,3.73122317 12.4111735,3.91088222 12.2428096,4.0080979 C12.0744456,4.10531359 11.8670047,4.10531359 11.6986407,4.0080979 C11.5302768,3.91088222 11.4265734,3.73122317 11.4266013,3.53680787 L11.4266013,1.36112858 C11.4266013,1.21095039 11.3052617,1.08825047 11.1553555,1.08825047 L1.35949349,1.08825047 C1.21149179,1.08825047 1.08824774,1.21067833 1.08824774,1.36112858 L1.08824774,7.88898266 C1.08824774,8.03916084 1.20958737,8.16186078 1.35949349,8.16186078 L3.8088671,8.16186078 C4.10937841,8.16186078 4.35299097,8.40547334 4.35299097,8.70598465 C4.35299097,9.00649597 4.10937841,9.25010852 3.8088671,9.25010852 L0.545756247,9.25010852 C0.401163002,9.25054231 0.262343236,9.19340669 0.159946891,9.09131661 C0.0575505453,8.98922654 -6.50677476e-07,8.85057855 -5.41365508e-15,8.70598465 L-5.41365508e-15,0.544126594 C-5.35324519e-15,0.243498157 0.244311622,2.72274678e-06 0.545756247,2.72274678e-06 L11.9690928,2.72274678e-06 C12.113686,-0.000431057128 12.2525058,0.0567045608 12.3549021,0.158794635 C12.4572985,0.260884709 12.5148497,0.3995327 12.514849,0.544126594 L12.514849,3.53680787 Z M2.44855742,10.8824801 C2.44855742,10.5818517 2.69395728,10.3383563 2.99512984,10.3383563 L5.16672821,10.3383563 C5.36114351,10.3383284 5.54080256,10.4420318 5.63801824,10.6103957 C5.73523393,10.7787596 5.73523393,10.9862006 5.63801824,11.1545646 C5.54080256,11.3229285 5.36114351,11.4266318 5.16672821,11.426604 L2.99540191,11.426604 C2.85062048,11.4273279 2.71152049,11.3703205 2.60888829,11.2681989 C2.50625609,11.1660773 2.44855561,11.0272634 2.44855742,10.8824801 Z"></path>
                    </g>
                </g>
            </g>
        </g>
    </g>
</svg>