<?xml version="1.0" encoding="UTF-8"?>
<svg width="44px" height="44px" viewBox="0 0 44 44" version="1.1" xmlns="http://www.w3.org/2000/svg" xmlns:xlink="http://www.w3.org/1999/xlink">
    <!-- Generator: Sketch 49.2 (51160) - http://www.bohemiancoding.com/sketch -->
    <title>Group 189</title>
    <desc>Created with Sketch.</desc>
    <defs>
        <circle id="path-1" cx="12" cy="12" r="12"></circle>
        <filter x="-66.7%" y="-58.3%" width="233.3%" height="233.3%" filterUnits="objectBoundingBox" id="filter-2">
            <feOffset dx="0" dy="2" in="SourceAlpha" result="shadowOffsetOuter1"></feOffset>
            <feGaussianBlur stdDeviation="5" in="shadowOffsetOuter1" result="shadowBlurOuter1"></feGaussianBlur>
            <feComposite in="shadowBlurOuter1" in2="SourceAlpha" operator="out" result="shadowBlurOuter1"></feComposite>
            <feColorMatrix values="0 0 0 0 0   0 0 0 0 0   0 0 0 0 0  0 0 0 0.331719882 0" type="matrix" in="shadowBlurOuter1"></feColorMatrix>
        </filter>
    </defs>
    <g id="Page-6" stroke="none" stroke-width="1" fill="none" fill-rule="evenodd">
        <g id="在线预览6.18改-1" transform="translate(-508.000000, -929.000000)">
            <g id="Group-189" transform="translate(518.000000, 937.000000)">
                <g id="Oval">
                    <use fill="black" fill-opacity="1" filter="url(#filter-2)" xlink:href="#path-1"></use>
                    <use fill-opacity="0.35" fill="#000000" fill-rule="evenodd" xlink:href="#path-1"></use>
                </g>
                <rect id="Rectangle-48-Copy-20" x="4" y="4" width="16" height="16"></rect>
                <g id="export" transform="translate(5.484375, 5.718750)" fill="#FFFFFF" fill-rule="nonzero">
                    <path d="M11.1265625,7.39375 C10.81875,7.39375 10.5671875,7.64375 10.5671875,7.953125 L10.5671875,11.1390625 C10.5671875,11.3 10.4375,11.4296875 10.2765625,11.4296875 L1.4171875,11.4296875 C1.25625,11.4296875 1.1265625,11.3 1.1265625,11.1390625 L1.1265625,1.965625 C1.1265625,1.8046875 1.25625,1.675 1.4171875,1.675 L5.3953125,1.675 C5.703125,1.675 5.9546875,1.425 5.9546875,1.115625 C5.9546875,0.80625 5.7046875,0.55625 5.3953125,0.55625 L1.41875,0.55625 C0.6421875,0.55625 0.0109375,1.1875 0.0109375,1.9640625 L0.0109375,11.1375 C0.0109375,11.9125 0.6421875,12.54375 1.41875,12.54375 L10.2796875,12.54375 C11.05625,12.54375 11.6875,11.9125 11.6875,11.1359375 L11.6875,7.953125 C11.6859375,7.6453125 11.434375,7.39375 11.1265625,7.39375 Z M5.2859375,4.109375 C4.6140625,5.125 4.45,6.1234375 4.434375,6.234375 C4.3921875,6.540625 4.6046875,6.825 4.9078125,6.8671875 C4.9328125,6.871875 4.9609375,6.8734375 4.9875,6.8734375 C5.2625,6.8734375 5.5,6.6671875 5.540625,6.3984375 C5.5453125,6.3609375 5.6875,5.5171875 6.2359375,4.703125 C6.95625,3.634375 8.0390625,3.0890625 9.4484375,3.084375 C9.4703125,3.0859375 9.4890625,3.0875 9.5046875,3.0875 C9.8125,3.0875 10.0640625,2.8375 10.0640625,2.528125 L10.0640625,1.8703125 L11.634375,3.3640625 L10.0625,4.6734375 L10.0625,4.1390625 C10.0625,3.83125 9.8125,3.5796875 9.503125,3.5796875 C9.1953125,3.5796875 8.94375,3.8296875 8.94375,4.1390625 L8.94375,5.8671875 C8.94375,6.0828125 9.0703125,6.28125 9.2671875,6.3734375 C9.340625,6.409375 9.4234375,6.4265625 9.503125,6.4265625 C9.634375,6.4265625 9.7609375,6.3796875 9.859375,6.2984375 L12.8296875,3.825 C12.9515625,3.7203125 13.025,3.571875 13.028125,3.4140625 C13.034375,3.2546875 12.971875,3.1 12.85625,2.9890625 L9.8875,0.1625 C9.725,0.00625 9.4875,-0.034375 9.2828125,0.053125 C9.0765625,0.1421875 8.9453125,0.34375 8.9453125,0.5671875 L8.9453125,1.9875 C6.98125,2.1515625 5.871875,3.228125 5.2859375,4.109375 Z" id="Shape"></path>
                </g>
            </g>
        </g>
    </g>
</svg>