<?xml version="1.0" encoding="UTF-8"?>
<svg width="14px" height="14px" viewBox="0 0 14 14" version="1.1" xmlns="http://www.w3.org/2000/svg" xmlns:xlink="http://www.w3.org/1999/xlink">
    <!-- Generator: Sketch 47.1 (45422) - http://www.bohemiancoding.com/sketch -->
    <title>报表导出</title>
    <desc>Created with Sketch.</desc>
    <defs>
        <rect id="path-1" x="0" y="0" width="14" height="14"></rect>
    </defs>
    <g id="切图" stroke="none" stroke-width="1" fill="none" fill-rule="evenodd" opacity="0.649999976">
        <g id="A01-切图" transform="translate(-556.000000, -143.000000)">
            <g id="报表导出" transform="translate(556.000000, 143.000000)">
                <mask id="mask-2" fill="white">
                    <use xlink:href="#path-1"></use>
                </mask>
                <g id="Mask"></g>
                <path d="M12.8527508,9.79553638 C12.7631758,9.88519235 12.7129043,10.0067721 12.7130046,10.1335075 L12.7130046,11.4403798 C12.713277,11.7841185 12.5768369,12.1138544 12.3337617,12.3568992 C12.0906865,12.599944 11.7609336,12.7363429 11.417195,12.7360276 L2.53934507,12.7360276 C2.19488049,12.7372957 1.86420957,12.6007759 1.62096727,12.3568689 C1.37591182,12.1117595 1.24002774,11.7867817 1.24002774,11.440218 L1.24002774,4.13334561 C1.24068301,3.34076452 1.88334934,2.69858125 2.6759307,2.69852195 L12.0907958,2.69852195 L11.4607909,3.32958964 C11.3404749,3.45083109 11.2959556,3.63174747 11.3407958,3.79656491 C11.385636,3.96138236 11.5156665,4.08299074 11.6808227,4.12656674 C11.8459788,4.17014275 12.0204676,4.1243693 12.1407836,4.00312785 L13.580786,2.55655942 C13.76612,2.36967727 13.7568563,2.07270057 13.5707763,1.88656125 L12.1407836,0.448771572 C11.9540311,0.262078748 11.6474837,0.262127078 11.4607909,0.448879519 C11.2740981,0.635631961 11.2740385,0.938369168 11.4607909,1.12506201 L12.080786,1.74333996 L2.6759307,1.74333996 C2.04187332,1.74289603 1.43363806,1.99448539 0.98516517,2.44270523 C0.536692285,2.89092507 0.284759681,3.49901825 0.28484576,4.13307577 L0.28484576,11.4399481 C0.284313468,12.0377442 0.521773117,12.6111618 0.944782592,13.0335638 C1.36779207,13.4559657 1.94155038,13.692601 2.53934507,13.6912095 L11.417195,13.6912095 C12.0146478,13.6926903 12.5880571,13.4560085 13.0105213,13.0335443 C13.4329855,12.61108 13.6696673,12.0376708 13.6681865,11.440218 L13.6681865,10.1333456 C13.6682438,10.0066382 13.6179533,9.8851001 13.528383,9.79547915 C13.4388127,9.70585821 13.3173029,9.65549909 13.1905956,9.65548479 C13.0638601,9.65549907 12.9423258,9.70588041 12.8527508,9.79553638 Z" id="Shape" stroke="#000000" stroke-width="0.3" fill="#000000" fill-rule="nonzero" mask="url(#mask-2)"></path>
                <path d="M3.6541648,8.91585741 L3.6541648,10.8281102 C3.65416479,10.998737 3.74519312,11.1564027 3.89296029,11.2417161 C4.04072746,11.3270295 4.22278412,11.3270295 4.37055129,11.2417161 C4.51831846,11.1564027 4.60934679,10.998737 4.60934678,10.8281102 L4.60934678,8.91585741 C4.60934678,8.65209119 4.39552201,8.43826642 4.13175579,8.43826642 C3.86798957,8.43826642 3.6541648,8.65209119 3.6541648,8.91585741 L3.6541648,8.91585741 Z M6.52510726,5.09162175 L6.52510726,10.8281102 C6.52510726,11.0918764 6.73893203,11.3057012 7.00269825,11.3057012 C7.26646448,11.3057012 7.48028925,11.0918764 7.48028925,10.8281102 L7.48028925,5.09162175 C7.48028925,4.92099491 7.38926093,4.76332922 7.24149376,4.6780158 C7.09372659,4.59270238 6.91166992,4.59270238 6.76390275,4.6780158 C6.61613558,4.76332922 6.52510726,4.92099491 6.52510726,5.09162175 Z M9.39065322,7.95981198 L9.39065322,10.8281102 C9.39065322,11.0918764 9.60447799,11.3057012 9.86824421,11.3057012 C10.1320104,11.3057012 10.3458352,11.0918764 10.3458352,10.8281102 L10.3458352,7.95986596 C10.3458448,7.78923913 10.2548254,7.63156829 10.1070631,7.54624653 C9.95930073,7.46092477 9.77724407,7.46091448 9.62947208,7.54621954 C9.4817001,7.63152461 9.39066286,7.78918515 9.39065322,7.95981198 Z" id="Shape" stroke="#000000" stroke-width="0.5" fill="#000000" fill-rule="nonzero" mask="url(#mask-2)"></path>
            </g>
        </g>
    </g>
</svg>