<?xml version="1.0" encoding="UTF-8"?>
<svg width="13px" height="15px" viewBox="0 0 13 15" version="1.1" xmlns="http://www.w3.org/2000/svg" xmlns:xlink="http://www.w3.org/1999/xlink">
    <!-- Generator: Sketch 50.2 (55047) - http://www.bohemiancoding.com/sketch -->
    <title>统一维度@1x</title>
    <desc>Created with Sketch.</desc>
    <defs></defs>
    <g id="Page-6" stroke="none" stroke-width="1" fill="none" fill-rule="evenodd">
        <g id="自定义维度／统一维度" transform="translate(-1153.000000, -207.000000)">
            <g id="统一维度" transform="translate(1148.000000, 204.000000)">
                <circle id="Oval-3" cx="11" cy="11" r="11"></circle>
                <path d="M8.27818948,5.3178399 L11.3271283,3.6153823 L14.3046343,5.3178399 L11.3271283,7.01882207 L8.27818948,5.3178399 Z M14.5964651,8.77878578 L12.041996,7.30187227 L14.8544149,5.73576673 L17.5289882,7.1308654 L17.5289882,9.88577817 L14.5964651,11.5197179 L14.5964651,8.77878578 Z M8.67024216,16.1244881 L8.67024216,12.7431079 L11.2644941,14.2112408 L13.8388457,12.7431079 L13.8388457,16.1244881 L11.2541661,17.6153823 L8.67024216,16.1244881 Z M14.5964651,12.3878872 L17.5289882,10.7738479 L17.5289882,14.0998992 L14.5964651,15.8944997 L14.5964651,12.3878872 Z M8.67024216,9.23865463 L11.3271283,7.76982005 L13.8388457,9.23865463 L13.8388457,11.9935854 L11.2644941,13.3401206 L8.67024216,11.9928837 L8.67024216,9.23865463 Z M5,14.0896431 L5,10.7738479 L8.06444888,12.3878872 L8.06444888,15.7980025 L5,14.0896431 Z M5.05158635,7.1308654 L7.59790457,5.73576673 L10.4427111,7.30187227 L7.92584767,8.77878578 L7.92584767,11.5204196 L5,9.88500447 L5.05158635,7.13016367 L5.05158635,7.1308654 Z" id="核算维度" fill="#2BB8CC"></path>
            </g>
        </g>
    </g>
</svg>