<?xml version="1.0" encoding="UTF-8"?>
<svg width="14px" height="14px" viewBox="0 0 14 14" version="1.1" xmlns="http://www.w3.org/2000/svg" xmlns:xlink="http://www.w3.org/1999/xlink">
    <!-- Generator: Sketch 47.1 (45422) - http://www.bohemiancoding.com/sketch -->
    <title>报表使用统计</title>
    <desc>Created with Sketch.</desc>
    <defs>
        <rect id="path-1" x="0" y="0" width="14" height="14"></rect>
    </defs>
    <g id="切图" stroke="none" stroke-width="1" fill="none" fill-rule="evenodd" opacity="0.649999976">
        <g id="A01-切图" transform="translate(-556.000000, -63.000000)">
            <g id="报表使用统计" transform="translate(556.000000, 63.000000)">
                <mask id="mask-2" fill="white">
                    <use xlink:href="#path-1"></use>
                </mask>
                <g id="Mask"></g>
                <path d="M7,7 L7,0.199999809 L6.14999998,0.199999809 L6.14999998,0.204249809 C2.79419988,0.637749822 0.199999809,3.4971499 0.199999809,6.97025 C0.199999809,10.7425501 3.2582999,13.8000002 7.0306,13.8000002 C10.5045501,13.8000002 13.3656502,11.2058001 13.7983002,7.85000002 L13.8000002,7.85000002 L13.8000002,7 L7,7 Z M10.2835501,7.85000002 C9.90360008,9.31455006 8.58185004,10.4042501 7,10.4042501 C5.12319995,10.4042501 3.5957499,8.87680005 3.5957499,7 C3.5957499,5.41814996 4.68544994,4.09639992 6.14999998,3.71644991 L6.14999998,7.85000002 L10.2835501,7.85000002 Z M7.0306,12.9466002 C3.73514991,12.9466002 1.05339983,10.2657001 1.05339983,6.9711 C1.05339983,3.97654992 3.2710499,1.49709985 6.14914998,1.06869983 L6.14914998,2.83244988 C4.20774992,3.22514989 2.74574988,4.94129994 2.74574988,7 C2.74574988,9.34940007 4.65059993,11.2542501 7,11.2542501 C9.05870006,11.2542501 10.7748501,9.79225008 11.1684001,7.85000002 L12.9355502,7.85000002 C12.5080002,10.7281001 10.0268501,12.9466002 7.0306,12.9466002 Z" id="已使用" stroke="#000000" stroke-width="0.4" fill="#000000" fill-rule="nonzero" mask="url(#mask-2)"></path>
            </g>
        </g>
    </g>
</svg>