<?xml version="1.0" encoding="UTF-8"?>
<svg width="14px" height="14px" viewBox="0 0 14 14" version="1.1" xmlns="http://www.w3.org/2000/svg" xmlns:xlink="http://www.w3.org/1999/xlink">
    <!-- Generator: Sketch 47.1 (45422) - http://www.bohemiancoding.com/sketch -->
    <title>用户管理</title>
    <desc>Created with Sketch.</desc>
    <defs>
        <rect id="path-1" x="0" y="0" width="14" height="14"></rect>
    </defs>
    <g id="切图" stroke="none" stroke-width="1" fill="none" fill-rule="evenodd" opacity="0.649999976">
        <g id="A01-切图" transform="translate(-700.000000, -63.000000)">
            <g id="用户管理" transform="translate(700.000000, 63.000000)">
                <mask id="mask-2" fill="white">
                    <use xlink:href="#path-1"></use>
                </mask>
                <g id="Mask"></g>
                <g id="Drgs平台软件系统2-15" mask="url(#mask-2)" stroke="#000000" fill="#000000" fill-rule="nonzero">
                    <g transform="translate(0.150000, 0.150000)" id="Shape">
                        <path d="M8.24538379,8.29322103 C8.88039264,7.85918604 9.29817032,7.12461427 9.29817032,6.28985303 C9.29817032,4.93760948 8.19523487,3.83575005 6.84167075,3.83575005 C5.48805042,3.83575005 4.40183128,4.93760946 4.40183128,6.27315303 C4.40183128,7.10791427 4.81963004,7.84248604 5.45463538,8.27652103 C4.01748622,8.84414196 3.01483455,10.2297855 3.01483455,11.8491694 L3.01483455,11.8491694 L3.69999233,11.8491694 C3.69999233,10.2464715 4.91987518,8.91093142 6.47402443,8.72729463 C6.49074158,8.72729463 6.90848328,8.69389291 7.25940978,8.72729463 L7.29284412,8.72729463 C8.81356076,8.94427386 9.98330874,10.2464715 9.98330874,11.8324659 L9.98330874,11.8324659 L10.6851653,11.8324659 C10.6684481,10.229768 9.66581485,8.84412441 8.24538201,8.29320347 L8.24538379,8.29322103 Z M6.84167075,8.10956807 C5.8222817,8.10956807 5.00344266,7.29154545 5.00344266,6.27315092 C5.00344266,5.254795 5.8222817,4.43677238 6.84167075,4.43677238 C7.86102116,4.43675355 8.67984263,5.25479501 8.67984263,6.27315092 C8.67984263,7.29154545 7.86102115,8.10958562 6.84167075,8.10956807 Z" stroke-width="0.5"></path>
                        <path d="M6.85006241,0 C3.06664805,0 0,3.06662206 0,6.85004157 C0,10.6331069 3.06663138,13.6999998 6.85006241,13.6999998 C10.6333851,13.6999998 13.6999998,10.633111 13.6999998,6.85004157 C13.6999998,3.06663873 10.6333684,0 6.85006241,0 Z M6.85006241,12.8437602 C3.53973582,12.8437602 0.856242175,10.160058 0.856242175,6.85004157 C0.856242175,3.53972505 3.53972748,0.85623957 6.85006241,0.85623957 C10.1603015,0.85623957 12.8437993,3.53974172 12.8437993,6.85004157 C12.8438217,10.1600664 10.160314,12.8437602 6.85006241,12.8437602 Z" stroke-width="0.3"></path>
                    </g>
                </g>
            </g>
        </g>
    </g>
</svg>