<?xml version="1.0" encoding="UTF-8"?>
<svg width="14px" height="14px" viewBox="0 0 14 14" version="1.1" xmlns="http://www.w3.org/2000/svg" xmlns:xlink="http://www.w3.org/1999/xlink">
    <!-- Generator: Sketch 47.1 (45422) - http://www.bohemiancoding.com/sketch -->
    <title>可视化</title>
    <desc>Created with Sketch.</desc>
    <defs>
        <rect id="path-1" x="0" y="0" width="14" height="14"></rect>
    </defs>
    <g id="切图" stroke="none" stroke-width="1" fill="none" fill-rule="evenodd" opacity="0.65">
        <g id="A01-切图" transform="translate(-412.000000, -103.000000)">
            <g id="可视化" transform="translate(412.000000, 103.000000)">
                <mask id="mask-2" fill="white">
                    <use xlink:href="#path-1"></use>
                </mask>
                <g id="Rectangle-4"></g>
                <g id="dashboard" mask="url(#mask-2)" stroke="#000000" stroke-width="0.3" fill="#000000" fill-rule="nonzero">
                    <g transform="translate(0.150000, 0.639286)" id="Shape">
                        <path d="M6.8499999,0 C3.06644527,0 0,3.13859138 0,7.01116398 C0,9.30485532 1.07566405,11.3411055 2.73999996,12.6200952 C2.82294918,12.6817167 2.92596676,12.7214284 3.03701168,12.7214284 C3.30325191,12.7214284 3.51865229,12.5009602 3.51865229,12.2284559 C3.51865229,12.0476994 3.42366206,11.890222 3.28184566,11.8039519 C2.77612301,11.4095739 2.33461911,10.9316645 1.97740232,10.3921335 L2.56874996,10.0429447 C2.77344723,9.92244027 2.84301754,9.65404415 2.72528317,9.44453085 C2.60754879,9.23501756 2.34532223,9.16381042 2.14062497,9.2843148 L1.54927732,9.63350363 C1.23219725,8.96525207 1.03285155,8.22716273 0.979335924,7.44936173 L1.65898435,7.44936173 C1.89579099,7.44936173 2.08710935,7.25354211 2.08710935,7.01116398 C2.08710935,6.76878585 1.89579099,6.57296623 1.65898435,6.57296623 L0.979335924,6.57296623 C1.03418944,5.79242649 1.23487303,5.05296779 1.5519531,4.38197749 L2.14062497,4.72979695 C2.34532223,4.85030133 2.60754879,4.7790942 2.72528317,4.5695809 C2.84301754,4.3600676 2.77344723,4.09167148 2.56874996,3.9711671 L1.98141599,3.624717 C2.39883786,2.99754648 2.92864254,2.45527676 3.54139644,2.02803396 L3.87988276,2.62918649 C3.99761713,2.83869979 4.25984369,2.90990693 4.46454095,2.78940254 C4.66923822,2.66889816 4.73880853,2.40050204 4.62107415,2.19098874 L4.28124994,1.58846684 C4.93547845,1.26255726 5.65793937,1.05852144 6.42187491,1.00237735 L6.42187491,1.69801628 C6.42187491,1.94039441 6.61319327,2.13621403 6.8499999,2.13621403 C7.08680654,2.13621403 7.2781249,1.94039441 7.2781249,1.69801628 L7.2781249,1.00237735 C8.03804676,1.05852144 8.7591698,1.26255726 9.41206042,1.5857281 L9.07089831,2.19098874 C8.95316394,2.40050204 9.02273425,2.66889816 9.22743151,2.78940254 C9.43212877,2.90990693 9.69435533,2.83869979 9.81208971,2.62918649 L10.1532518,2.02392585 C10.7686815,2.45116866 11.2998241,2.99480774 11.7185838,3.624717 L11.1312498,3.9711671 C10.9265526,4.09167148 10.8569823,4.3600676 10.9747166,4.5695809 C11.092451,4.7790942 11.3546776,4.85030133 11.5593748,4.72979695 L12.1480467,4.38197749 C12.4664647,5.05159842 12.6658104,5.79242649 12.7206639,6.57296623 L12.0410155,6.57296623 C11.8042088,6.57296623 11.6128905,6.76878585 11.6128905,7.01116398 C11.6128905,7.25354211 11.8042088,7.44936173 12.0410155,7.44936173 L12.7206639,7.44936173 C12.6658104,8.2285321 12.4664647,8.96525207 12.1507225,9.63350363 L11.5593748,9.2843148 C11.3546776,9.16381042 11.092451,9.23501756 10.9747166,9.44453085 C10.8569823,9.65404415 10.9265526,9.92244027 11.1312498,10.0429447 L11.7225975,10.3921335 C11.3560155,10.9453581 10.9024706,11.4314838 10.3820311,11.8313392 C10.2683104,11.9258256 10.1947264,12.0682399 10.1947264,12.2284559 C10.1947264,12.5009602 10.4101268,12.7214284 10.676367,12.7214284 C10.8101561,12.7214284 10.9319041,12.6652843 11.0202049,12.5735367 C12.6497557,11.2931776 13.6999998,9.27746796 13.6999998,7.01116398 C13.6999998,3.13859138 10.6335545,0 6.8499999,0 Z"></path>
                        <path d="M8.9585155,5.30155738 L7.27678701,6.64627672 C7.14834951,6.58054706 7.00251943,6.54494349 6.8499999,6.54494349 C6.31751944,6.54494349 5.88671867,6.98587997 5.88671867,7.53088842 C5.88671867,8.07589687 6.31751944,8.51683336 6.8499999,8.51683336 C7.38248037,8.51683336 7.81328114,8.07589687 7.81328114,7.53088842 C7.81328114,7.46652813 7.80792958,7.40490657 7.79588856,7.34465438 L9.4856444,5.99171883 C9.67161119,5.84245772 9.70505846,5.56721476 9.55922838,5.37687262 C9.41339831,5.18653047 9.14448229,5.15229627 8.9585155,5.30155738 Z"></path>
                    </g>
                </g>
            </g>
        </g>
    </g>
</svg>