<?xml version="1.0" encoding="UTF-8"?>
<svg width="14px" height="14px" viewBox="0 0 14 14" version="1.1" xmlns="http://www.w3.org/2000/svg" xmlns:xlink="http://www.w3.org/1999/xlink">
    <!-- Generator: Sketch 47.1 (45422) - http://www.bohemiancoding.com/sketch -->
    <title>报表访问统计</title>
    <desc>Created with Sketch.</desc>
    <defs>
        <rect id="path-1" x="0" y="0" width="14" height="14"></rect>
    </defs>
    <g id="切图" stroke="none" stroke-width="1" fill="none" fill-rule="evenodd" opacity="0.649999976">
        <g id="A01-切图" transform="translate(-556.000000, -103.000000)">
            <g id="报表访问统计" transform="translate(556.000000, 103.000000)">
                <mask id="mask-2" fill="white">
                    <use xlink:href="#path-1"></use>
                </mask>
                <g id="Mask"></g>
                <g id="访问量" mask="url(#mask-2)" fill="#000000">
                    <path d="M2.00281352,12.7551513 C2.00281352,13.1665137 1.7084373,13.5 1.34532598,13.5 L1.34532598,13.5 C0.982196466,13.5 0.687838444,13.1665137 0.687838444,12.7551513 L0.687838444,1.24484867 C0.687838444,0.833486277 0.982214659,0.5 1.34532598,0.5 L1.34532598,0.5 C1.7084555,0.5 2.00281352,0.833486295 2.00281352,1.24484867 L2.00281352,12.7551513 Z M1.45419489,13.5 C1.03095426,13.5 0.687838444,13.2180532 0.687838444,12.8702467 L0.687838444,12.8702467 C0.687838444,12.5224402 1.03095428,12.2405116 1.45419489,12.2405116 L12.921482,12.2405116 C13.3447226,12.2405116 13.6878384,12.5224584 13.6878384,12.8702467 L13.6878384,12.8702467 C13.6878384,13.2180532 13.3447226,13.5 12.921482,13.5 L1.45419489,13.5 Z" id="Shape" fill-rule="nonzero"></path>
                    <path d="M3.31309299,9.48479388 C3.78382042,9.48479388 4.16534611,9.08674976 4.16534611,8.59582999 C4.16534611,8.47740993 4.14295637,8.36447398 4.10266342,8.26114178 L5.78523714,6.24392045 C5.86711562,6.27076881 5.95341175,6.28449092 6.0403544,6.28448713 C6.28868473,6.28448713 6.51212488,6.17363724 6.66788143,5.99687306 L8.25648113,6.82780771 C8.26162491,7.31413552 8.64112167,7.70686609 9.10849135,7.70686609 C9.57920449,7.70686609 9.96074447,7.30880885 9.96074447,6.81788908 C9.96074447,6.80143675 9.96024438,6.78514185 9.95940137,6.76892568 L12.172399,4.78593412 C12.2779465,4.83477944 12.3946389,4.86212128 12.5175181,4.86212128 C12.9882598,4.86212128 13.3697855,4.46415587 13.3697855,3.97314426 C13.3697855,3.48221137 12.9882598,3.08418037 12.5175181,3.08418037 C12.0469621,3.08418037 11.665265,3.48221137 11.665265,3.97314426 C11.665265,4.07431168 11.6816965,4.17141193 11.711559,4.26200472 L9.63960106,6.12290265 C9.49391774,6.00159621 9.30939887,5.92889894 9.10846277,5.92889894 C8.87677829,5.92889894 8.66678342,6.02552688 8.51314153,6.18207332 L6.89036426,5.33450266 C6.86027314,4.87205303 6.49137829,4.5065331 6.04034012,4.5065331 C5.56975557,4.5065331 5.18807271,4.90459034 5.18807271,5.39551011 C5.18807271,5.53022507 5.21696361,5.65785529 5.26838714,5.77227378 L3.61254679,7.76342591 C3.51938719,7.72695263 3.41849764,7.70685297 3.31309299,7.70685297 C2.84250844,7.70685297 2.46082558,8.10488398 2.46082558,8.59582999 C2.46082558,9.08674976 2.84250844,9.48479388 3.31309299,9.48479388 Z" id="Path" stroke="#000000" stroke-width="0.3" transform="translate(7.915306, 6.284487) rotate(-13.000000) translate(-7.915306, -6.284487) "></path>
                </g>
            </g>
        </g>
    </g>
</svg>