<?xml version="1.0" encoding="UTF-8"?>
<svg width="16px" height="16px" viewBox="0 0 16 16" version="1.1" xmlns="http://www.w3.org/2000/svg" xmlns:xlink="http://www.w3.org/1999/xlink">
    <!-- Generator: Sketch 49.2 (51160) - http://www.bohemiancoding.com/sketch -->
    <title>Group 2</title>
    <desc>Created with Sketch.</desc>
    <defs></defs>
    <g id="可视化高保真定稿" stroke="none" stroke-width="1" fill="none" fill-rule="evenodd">
        <g id="A06添加元素（tab）" transform="translate(-1224.000000, -18.000000)" fill="#FFFFFF">
            <g id="Group-2" transform="translate(1224.000000, 18.000000)">
                <path d="M11.7435399,10.858989 C13.2257358,8.95895999 13.1146547,6.21152521 11.3679242,4.4647947 C10.4533161,3.54965498 9.23576561,3.04523837 7.94120041,3.04523837 C6.64665736,3.04523837 5.42910689,3.54965498 4.51447662,4.4647947 C2.62465862,6.35463485 2.62465862,9.42928811 4.51447662,11.3191283 C5.42910689,12.234268 6.64665736,12.7386846 7.94120041,12.7386846 C9.03519948,12.7386846 10.0621291,12.3598128 10.9098892,11.6958293 L13.6279977,14.4136056 C13.7434201,14.529028 13.8943929,14.5867281 14.0453657,14.5867281 C14.1964493,14.5867281 14.3483745,14.529028 14.4628445,14.4136056 C14.6936007,14.1827607 14.6936007,13.808629 14.4628445,13.5778728 L11.7435399,10.858989 Z M5.34925699,10.4833955 C3.92110655,9.05473557 3.92110655,6.72918739 5.34925699,5.30052751 C6.04170296,4.60852453 6.96211432,4.22721631 7.94120041,4.22721631 C8.92022005,4.22721631 9.84063141,4.60852453 10.5330774,5.30052751 C11.9613164,6.72918739 11.9613164,9.05473557 10.5330774,10.4833955 C9.14820759,11.867335 6.73421538,11.867335 5.34925699,10.4833955 Z" id="Fill-1"></path>
                <path d="M11.8237442,0.0133120091 L3.93357687,0.0133120091 C1.76480472,0.0133120091 0,1.77811673 0,3.94688888 L0,11.8366132 C0,14.0058062 1.76480472,15.770611 3.93357687,15.770611 L8.2162562,15.770611 C8.5422786,15.770611 8.8067911,15.5061206 8.8067911,15.1796774 C8.8067911,14.8531234 8.5422786,14.588633 8.2162562,14.588633 L3.93357687,14.588633 C2.41587493,14.588633 1.1810255,13.3542266 1.1810255,11.8366132 L1.1810255,3.94688888 C1.1810255,2.42971854 2.41587493,1.19528995 3.93357687,1.19528995 L11.8237442,1.19528995 C13.341424,1.19528995 14.5762734,2.42971854 14.5762734,3.94688888 L14.5762734,8.15013915 C14.5762734,8.47667099 14.8407859,8.74118349 15.1667862,8.74118349 C15.4928972,8.74118349 15.7572989,8.47667099 15.7572989,8.15013915 L15.7572989,3.94688888 C15.7572989,1.77811673 13.9925164,0.0133120091 11.8237442,0.0133120091 Z" id="Fill-2"></path>
            </g>
        </g>
    </g>
</svg>