<?xml version="1.0" encoding="UTF-8"?>
<svg width="16px" height="16px" viewBox="0 0 16 16" version="1.1" xmlns="http://www.w3.org/2000/svg" xmlns:xlink="http://www.w3.org/1999/xlink">
    <!-- Generator: Sketch 49.2 (51160) - http://www.bohemiancoding.com/sketch -->
    <title>Group 124</title>
    <desc>Created with Sketch.</desc>
    <defs></defs>
    <g id="可视化高保真定稿" stroke="none" stroke-width="1" fill="none" fill-rule="evenodd">
        <g id="A08预览-悬浮" transform="translate(-1270.000000, -17.000000)">
            <g id="Group-124" transform="translate(1270.000000, 17.000000)">
                <rect id="Rectangle-43-Copy-3" x="0" y="0" width="16" height="16"></rect>
                <g id="login" fill="#FFFFFF" fill-rule="nonzero">
                    <path d="M6.9203125,9.7265625 C6.7,9.946875 6.7,10.3015625 6.91875,10.5203125 C7.028125,10.6296875 7.1734375,10.6859375 7.3171875,10.6859375 C7.4609375,10.6859375 7.60625,10.63125 7.715625,10.521875 L9.8375,8.4 C10.0578125,8.1796875 10.0578125,7.8203125 9.8375,7.6 L7.715625,5.4796875 C7.4953125,5.259375 7.1390625,5.259375 6.9203125,5.4796875 C6.7,5.7 6.7,6.05625 6.9203125,6.275 L8.08125,7.4359375 L0.5640625,7.4375 C0.253125,7.4375 0.0015625,7.6890625 0.0015625,8 C0.0015625,8.3109375 0.2546875,8.5640625 0.5640625,8.5640625 L8.08125,8.565625 L6.9203125,9.7265625 Z" id="Shape"></path>
                    <path d="M15.3703125,4.8875 C14.9671875,3.934375 14.390625,3.078125 13.65625,2.34375 C12.921875,1.609375 12.0671875,1.03125 11.1140625,0.628125 C10.128125,0.2109375 9.0796875,0 8,0 C6.7296875,0 5.5140625,0.2890625 4.3875,0.859375 C3.3140625,1.4046875 2.3609375,2.1984375 1.6328125,3.159375 C1.44375,3.40625 1.4921875,3.759375 1.7390625,3.946875 C1.9859375,4.1359375 2.3390625,4.0875 2.5265625,3.840625 C3.1546875,3.015625 3.9734375,2.33125 4.896875,1.8640625 C5.8640625,1.3734375 6.9078125,1.125 8,1.125 C8.928125,1.125 9.828125,1.30625 10.675,1.6640625 C11.49375,2.009375 12.2296875,2.50625 12.8609375,3.1375 C13.4921875,3.76875 13.9875,4.5046875 14.334375,5.3234375 C14.69375,6.171875 14.875,7.071875 14.875,8 C14.875,8.928125 14.69375,9.828125 14.3359375,10.675 C13.990625,11.49375 13.49375,12.2296875 12.8625,12.8609375 C12.23125,13.4921875 11.4953125,13.9875 10.6765625,14.334375 C9.828125,14.6953125 8.928125,14.875 8,14.875 C6.9078125,14.875 5.8640625,14.6265625 4.89375,14.134375 C3.971875,13.6671875 3.1515625,12.9828125 2.5234375,12.1578125 C2.3359375,11.9109375 1.9828125,11.8640625 1.7359375,12.0515625 C1.4890625,12.2390625 1.4421875,12.5921875 1.6296875,12.8390625 C2.3609375,13.8 3.3140625,14.5953125 4.3875,15.1390625 C5.5140625,15.709375 6.7296875,15.9984375 8,15.9984375 C9.0796875,15.9984375 10.128125,15.7875 11.1140625,15.3703125 C12.065625,14.96875 12.921875,14.390625 13.65625,13.65625 C14.390625,12.921875 14.96875,12.0671875 15.371875,11.1140625 C15.7890625,10.128125 16,9.0796875 16,8 C16,6.9203125 15.7890625,5.871875 15.3703125,4.8875 Z" id="Shape"></path>
                </g>
            </g>
        </g>
    </g>
</svg>