<?xml version="1.0" encoding="UTF-8"?>
<svg width="8px" height="10px" viewBox="0 0 8 10" version="1.1" xmlns="http://www.w3.org/2000/svg" xmlns:xlink="http://www.w3.org/1999/xlink">
    <!-- Generator: Sketch 47 (45396) - http://www.bohemiancoding.com/sketch -->
    <title>Group 69 Copy 7</title>
    <desc>Created with Sketch.</desc>
    <defs></defs>
    <g id="可视化高保真定稿" stroke="none" stroke-width="1" fill="none" fill-rule="evenodd" opacity="0.65">
        <g id="B06—标准表格-趋势标记" transform="translate(-1100.000000, -208.000000)">
            <g id="Group-4" transform="translate(24.000000, 158.000000)">
                <g id="Group-5">
                    <g id="Group-69-Copy-7" transform="translate(1074.000000, 49.000000)">
                        <rect id="Rectangle-37-Copy-3" x="0" y="0" width="12" height="12"></rect>
                        <g id="arrowup" transform="translate(2.156250, 1.476562)" fill-rule="nonzero" fill="#F5222D">
                            <path d="M3.328125,8.5171875 L3.328125,1.79414063 C3.328125,1.79296875 3.32578125,1.79179688 3.32578125,1.79296875 L0.88828125,4.32890625 C0.69140625,4.53398438 0.364453125,4.54101563 0.159375,4.34296875 C-0.045703125,4.14609375 -0.052734375,3.81914063 0.1453125,3.6140625 L3.4640625,0.160546875 C3.56132813,0.059765625 3.69609375,0.00234375 3.83554688,0.00234375 C3.97617188,0.00234375 4.10976563,0.059765625 4.20703125,0.160546875 L7.54335938,3.6328125 C7.63945313,3.73242188 7.6875,3.86132813 7.6875,3.99023438 C7.6875,4.12617188 7.63476563,4.2609375 7.52929688,4.36171875 C7.32421875,4.55859375 6.99726563,4.55273438 6.80039063,4.34765625 L4.36289063,1.81171875 C4.36171875,1.81054688 4.36054688,1.81171875 4.36054688,1.81289063 L4.36054688,8.52890625 C4.36054688,8.803125 4.14609375,9.02695313 3.8765625,9.04335938 C3.5765625,9.0609375 3.328125,8.81601563 3.328125,8.5171875 Z" id="Shape"></path>
                        </g>
                    </g>
                </g>
            </g>
        </g>
    </g>
</svg>